<svg xmlns="http://www.w3.org/2000/svg" width="200" height="100" version="1.1">
 <path fill="currentColor" d="M15.22,15.22h9.51v9.51H15.22Zm-14,0h9.51v9.51H1.27ZM14.59,14h0a.63.63,0,0,0-.63.63V25.37a.63.63,0,0,0,.63.63H25.37a.63.63,0,0,0,.63-.63V14.59a.63.63,0,0,0-.63-.63Zm-14,0h0a.63.63,0,0,0-.63.63V25.37A.63.63,0,0,0,.63,26H11.41a.63.63,0,0,0,.63-.63V14.59a.63.63,0,0,0-.63-.63ZM15.22,1.27h9.51v9.51H15.22Zm-14,0h9.51v9.51H1.27ZM14.59,0h0A.63.63,0,0,0,14,.64V11.42a.63.63,0,0,0,.63.63H25.37a.63.63,0,0,0,.63-.63V.64A.63.63,0,0,0,25.43,0H14.59ZM.57,0h0A.63.63,0,0,0,0,.64V11.42a.63.63,0,0,0,.63.63H11.41a.63.63,0,0,0,.63-.63V.64A.63.63,0,0,0,11.41,0H.57Z"/>       
</svg>
