<svg xmlns="http://www.w3.org/2000/svg"  version="1.1"><rect fill="currentColor" x="2.4" y="7.3" class="st0" width="45.1" height="4.8" />
        <rect fill="currentColor" x="5.1" y="12.7" class="st0" width="2.7" height="24.2" />
        <rect fill="currentColor" x="41.9" y="12.7" class="st0" width="2.7" height="24.2" />
        <rect fill="currentColor" x="5.5" y="34.6" class="st0" width="38.6" height="2.7" />
        <polygon fill="currentColor" class="st0" points="16.4,48.8 14.9,47.9 20.8,38.1 22.3,39" />
        <polygon fill="currentColor" class="st0" points="31.9,48.8 26,39 27.6,38.1 33.5,47.9" />
        <polygon fill="currentColor" class="st0" points="14.1,30.4 12.6,29.4 18.1,21 19.6,22" />
        <polygon fill="currentColor" class="st0" points="23.3,27.6 17.4,22.2 18.6,20.8 24.6,26.3" />
        <polygon fill="currentColor" class="st0" points="23.7,27.6 22.4,26.3 30.7,18.4 31.9,19.7" />
        <polyline fill="currentColor" class="st0" points="34.5,15.5 28.7,17.2 33.6,21.5" />
</svg>
