<svg xmlns="http://www.w3.org/2000/svg" width="200" height="100" version="1.1">
 
        <path fill="currentColor" d="M37.5,41.7H25.1V30.2H18v11.5H5.7V23.1c0-0.5,0.4-0.9,0.9-0.9s0.9,0.4,0.9,0.9v16.8h8.9V28.4h10.6v11.5 h8.9V24c0-0.5,0.4-0.9,0.9-0.9s0.9,0.4,0.9,0.9V41.7z" />
        <path fill="currentColor" d="M41.9,23.1c-0.2,0-0.4-0.1-0.6-0.2L21.6,4L1.8,22.8c-0.4,0.3-0.9,0.3-1.3,0c-0.3-0.4-0.3-0.9,0-1.3 l21-20.1l21,20.1c0.4,0.3,0.4,0.9,0,1.3C42.4,23,42.2,23.1,41.9,23.1z" />
        <path fill="currentColor" d="M34.9,12.5c-0.5,0-0.9-0.4-0.9-0.9V6.3h-5.3c-0.5,0-0.9-0.4-0.9-0.9s0.4-0.9,0.9-0.9h7.1v7.1 C35.8,12.1,35.4,12.5,34.9,12.5z" />
        
</svg>
