<svg xmlns="http://www.w3.org/2000/svg" width="200" height="100" version="1.1">
 <path fill="currentColor" d="M35.1,26.4c-0.2,0-0.5-0.1-0.7-0.3c-0.2-0.2-0.3-0.4-0.3-0.6c0-0.2,0.1-0.5,0.3-0.7l4-3.8h-17 c-0.5,0-0.9-0.5-0.9-1s0.4-1,0.9-1h17l-4-3.6c-0.2-0.2-0.3-0.3-0.3-0.6c0-0.2,0.1-0.4,0.3-0.6c0.2-0.2,0.4-0.2,0.7-0.2 c0.2,0,0.5,0.1,0.7,0.3l5.6,5.2c0,0,0.1,0,0.1,0.1c0.2,0.2,0.3,0.4,0.3,0.7c0,0.2-0.1,0.5-0.3,0.6c0,0-0.1,0.1-0.1,0.1l-5.6,5.2 C35.5,26.3,35.3,26.4,35.1,26.4z" />
        <path fill="currentColor" d="M29,28v9.9c0,0.6-0.5,1.1-1.1,1.1H3.1C2.5,39,2,38.5,2,37.9V3.1C2,2.5,2.5,2,3.1,2h24.8 C28.5,2,29,2.5,29,3.1V12h2V3.1C31,1.4,29.6,0,27.9,0H3.1C1.4,0,0,1.4,0,3.1v34.8C0,39.6,1.4,41,3.1,41h24.8c1.7,0,3.1-1.4,3.1-3.1 V28H29z" />
     
</svg>
