<?xml version="1.0" encoding="iso-8859-1"?>
<!-- Generator: Adobe Illustrator 18.0.0, SVG Export Plug-In . SVG Version: 6.00 Build 0)  -->
<!DOCTYPE svg PUBLIC "-//W3C//DTD SVG 1.1//EN" "http://www.w3.org/Graphics/SVG/1.1/DTD/svg11.dtd">
<svg version="1.1" id="Capa_1" xmlns="http://www.w3.org/2000/svg" xmlns:xlink="http://www.w3.org/1999/xlink" x="0px" y="0px"
	 viewBox="0 0 297 297" style="enable-background:new 0 0 297 297;" xml:space="preserve">
<path d="M254.648,106.153c-0.124,0-0.247-0.002-0.371-0.006c-1.334-0.04-4.218,0.174-7.14,0.989
	c9.521,11.147,15.289,25.594,15.289,41.368c0,5.922-4.801,10.723-10.722,10.723c-5.922,0-10.723-4.801-10.723-10.723
	c0-23.353-18.999-42.352-42.352-42.352c-8.305,0-16.344,2.432-23.197,6.922c6.799,10.143,10.773,22.33,10.773,35.43
	c0,5.922-4.801,10.723-10.722,10.723s-10.723-4.801-10.723-10.723c0-23.353-18.999-42.352-42.352-42.352
	c-9.395,0-18.449,3.109-25.83,8.799c6.058,9.755,9.568,21.25,9.568,33.553c0,5.922-4.802,10.723-10.723,10.723
	c-5.921,0-10.722-4.801-10.722-10.723c0-23.353-18.999-42.352-42.352-42.352C18.999,106.153,0,125.152,0,148.505
	c0,23.354,18.999,42.352,42.353,42.352h212.296c23.353,0,42.352-18.999,42.352-42.352C297,125.152,278.001,106.153,254.648,106.153z
	"/>
<g>
</g>
<g>
</g>
<g>
</g>
<g>
</g>
<g>
</g>
<g>
</g>
<g>
</g>
<g>
</g>
<g>
</g>
<g>
</g>
<g>
</g>
<g>
</g>
<g>
</g>
<g>
</g>
<g>
</g>
</svg>
