<?xml version="1.0" encoding="iso-8859-1"?>
<!-- Generator: Adobe Illustrator 18.0.0, SVG Export Plug-In . SVG Version: 6.00 Build 0)  -->
<!DOCTYPE svg PUBLIC "-//W3C//DTD SVG 1.1//EN" "http://www.w3.org/Graphics/SVG/1.1/DTD/svg11.dtd">
<svg version="1.1" id="Capa_1" xmlns="http://www.w3.org/2000/svg" xmlns:xlink="http://www.w3.org/1999/xlink" x="0px" y="0px"
	 viewBox="0 0 297 297" style="enable-background:new 0 0 297 297;" xml:space="preserve">
<path d="M292.532,4.595c-11.184-11.174-41.57-0.781-80.174,24.591c6.348,1.055,16.828,0.898,32.834-4.433
	c3.719-1.235,7.732,0.771,8.969,4.487c1.236,3.716-0.771,7.732-4.486,8.968c-12.662,4.217-22.764,5.681-30.684,5.681
	c-10.658,0-17.348-2.646-21.045-4.803c-12.807,9.157-26.303,19.734-40.141,31.526c6.35,1.055,16.828,0.897,32.83-4.432
	c3.711-1.236,7.73,0.771,8.967,4.487c1.238,3.715-0.77,7.73-4.486,8.968c-12.66,4.217-22.762,5.682-30.682,5.682
	c-9.029,0-15.209-1.902-19.139-3.796c-10.848,9.678-21.836,20.04-32.805,30.999c-1.828,1.826-3.633,3.652-5.428,5.479
	c5.877,1.555,17.002,2.329,35.561-3.852c3.717-1.237,7.73,0.771,8.969,4.486c1.238,3.716-0.771,7.73-4.486,8.969
	c-12.662,4.218-22.764,5.683-30.686,5.683c-9.732,0-16.152-2.209-20.012-4.234c-10.965,11.591-21.209,23.11-30.619,34.372
	c5.475,1.764,16.848,3.168,36.824-3.483c3.717-1.236,7.729,0.771,8.967,4.487c1.238,3.716-0.771,7.732-4.486,8.968
	c-12.66,4.216-22.762,5.68-30.682,5.68c-9.697,0-16.105-2.191-19.969-4.212c-10.02,12.56-18.9,24.692-26.492,36.126
	c4.371,1.954,15.965,4.898,38.838-2.719c3.715-1.237,7.729,0.771,8.967,4.487c1.238,3.716-0.771,7.729-4.486,8.968
	c-12.66,4.217-22.762,5.681-30.682,5.681c-9.98,0-16.481-2.321-20.305-4.389C1.917,256.44-5.659,282.288,4.466,292.405
	c19.885,19.868,100.492-28.453,180.041-107.932C264.054,105,312.419,24.464,292.532,4.595z"/>
<g>
</g>
<g>
</g>
<g>
</g>
<g>
</g>
<g>
</g>
<g>
</g>
<g>
</g>
<g>
</g>
<g>
</g>
<g>
</g>
<g>
</g>
<g>
</g>
<g>
</g>
<g>
</g>
<g>
</g>
</svg>
