<?xml version="1.0" encoding="iso-8859-1"?>
<!-- Generator: Adobe Illustrator 18.0.0, SVG Export Plug-In . SVG Version: 6.00 Build 0)  -->
<!DOCTYPE svg PUBLIC "-//W3C//DTD SVG 1.1//EN" "http://www.w3.org/Graphics/SVG/1.1/DTD/svg11.dtd">
<svg version="1.1" id="Capa_1" xmlns="http://www.w3.org/2000/svg" xmlns:xlink="http://www.w3.org/1999/xlink" x="0px" y="0px"
	 viewBox="0 0 297 297" style="enable-background:new 0 0 297 297;" xml:space="preserve">
<g>
	<path d="M4.192,286.076c0,6.143,4.552,10.924,10.162,10.924c5.055,0,9.228-3.689,10.017-8.512h8.422
		c0.791,4.823,4.97,8.512,10.017,8.512c5.055,0,9.228-3.689,10.017-8.512h8.422c0.791,4.823,4.97,8.512,10.017,8.512
		c5.046,0,9.226-3.689,10.017-8.512h8.422c0.791,4.823,4.97,8.512,10.017,8.512c5.046,0,9.226-3.689,10.017-8.512h8.422
		c0.791,4.823,4.97,8.512,10.017,8.512c5.046,0,9.226-3.689,10.017-8.512h8.422c0.791,4.823,4.971,8.512,10.017,8.512
		c5.046,0,9.226-3.689,10.017-8.512h8.422c0.791,4.823,4.971,8.512,10.017,8.512c5.055,0,9.228-3.689,10.017-8.512h8.422
		c0.791,4.823,4.971,8.512,10.017,8.512c5.619,0,10.163-4.554,10.163-10.162c0-3.964-2.273-7.391-5.587-9.066v-7.527
		c4.383-1.131,7.619-5.099,7.619-9.829c0-0.2-0.018-0.396-0.03-0.593c-0.66,0.056-1.327,0.084-2.002,0.084
		c-5.331,0-10.273-1.77-14.227-4.8c-3.955,3.03-8.898,4.8-14.228,4.8c-5.33,0-10.272-1.77-14.227-4.799
		c-3.955,3.03-8.897,4.799-14.228,4.799c-5.33,0-10.273-1.77-14.227-4.799c-3.955,3.03-8.898,4.799-14.229,4.799
		c-5.331,0-10.273-1.77-14.228-4.8c-3.955,3.03-8.897,4.8-14.228,4.8s-10.272-1.77-14.227-4.799
		c-3.955,3.03-8.897,4.799-14.229,4.799c-12.89,0-23.374-10.281-23.374-24.135c0-5.293,1.778-11.013,4.833-14.99
		c-3.055-3.978-4.833-8.937-4.833-14.228c0-5.293,1.778-10.251,4.833-14.227c-3.055-3.978-4.833-8.937-4.833-14.228
		c0-5.293,1.778-10.251,4.833-14.228c-3.055-3.977-4.833-8.936-4.833-14.227c0-5.293,1.778-10.251,4.833-14.228
		c-3.055-3.977-4.833-8.937-4.833-14.228c0-5.293,1.778-10.251,4.833-14.228c-3.055-3.978-4.833-8.937-4.833-14.228
		c0-5.293,1.778-10.251,4.833-14.228c-3.055-3.978-4.833-8.937-4.833-14.228c0-1.874,0.233-3.701,0.655-5.462h-3.088
		c-0.789-4.824-4.961-8.512-10.017-8.512c-5.047,0-9.226,3.688-10.017,8.512h-8.422c-0.789-4.824-4.961-8.512-10.017-8.512
		c-5.61,0-10.163,4.552-10.163,10.162c0,3.651,1.936,6.846,4.83,8.639v7.192c-4.38,1.129-7.624,5.098-7.624,9.829
		c0,4.732,3.244,8.7,7.624,9.83v8.795c-4.38,1.13-7.624,5.099-7.624,9.83c0,4.732,3.244,8.7,7.624,9.83v8.796
		c-4.38,1.129-7.624,5.098-7.624,9.829c0,4.732,3.244,8.7,7.624,9.83v8.796c-4.38,1.129-7.624,5.098-7.624,9.83
		c0,4.731,3.244,8.699,7.624,9.83v8.795c-4.38,1.127-7.624,5.089-7.624,9.83c0,4.732,3.244,8.699,7.624,9.83v8.795
		c-4.38,1.129-7.624,5.098-7.624,9.83c0,4.731,3.244,8.699,7.624,9.83v8.795c-4.38,1.129-7.624,5.098-7.624,9.83
		c0,4.731,3.244,8.699,7.624,9.83v8.795C7.436,276.612,4.192,281.343,4.192,286.076z"/>
	<path d="M71.265,235.771c0,5.609,4.553,10.924,10.163,10.924c5.054,0,9.228-3.688,10.017-8.512h8.421
		c0.791,4.823,4.971,8.512,10.018,8.512c5.045,0,9.226-3.688,10.017-8.512h8.421c0.791,4.823,4.971,8.512,10.018,8.512
		c5.054,0,9.227-3.688,10.017-8.512h8.421c0.791,4.823,4.971,8.512,10.018,8.512c5.054,0,9.227-3.688,10.017-8.512h8.421
		c0.791,4.823,4.971,8.512,10.018,8.512c5.045,0,9.226-3.688,10.017-8.512h8.421c0.791,4.823,4.971,8.512,10.018,8.512
		c5.055,0,9.228-3.688,10.017-8.512h8.421c0.791,4.823,4.971,8.512,10.018,8.512c5.055,0,9.228-3.688,10.017-8.512h8.421
		c0.791,4.823,4.971,8.512,10.018,8.512c5.609,0,10.162-4.553,10.162-10.162c0-3.962-2.276-7.388-5.586-9.064v-7.529
		c4.382-1.131,7.618-5.099,7.618-9.829c0-4.731-3.236-8.698-7.618-9.829v-8.797c4.382-1.131,7.618-5.099,7.618-9.829
		c0-4.732-3.236-8.698-7.618-9.829v-8.797c4.382-1.131,7.618-5.099,7.618-9.829c0-4.731-3.236-8.698-7.618-9.829v-8.797
		c4.382-1.131,7.618-5.099,7.618-9.829c0-4.731-3.236-8.698-7.618-9.829v-8.797c4.382-1.131,7.618-5.099,7.618-9.829
		c0-4.731-3.236-8.698-7.618-9.829v-8.797c4.382-1.131,7.618-5.099,7.618-9.829c0-4.731-3.236-8.699-7.618-9.829v-8.797
		c4.382-1.131,7.618-5.099,7.618-9.829c0-4.732-3.236-8.699-7.618-9.829v-8.797c4.382-1.131,7.618-5.099,7.618-9.829
		c0-5.61-4.543-10.163-10.162-10.163c-4.777,0-8.777,3.307-9.862,7.75h-7.814C264.18,3.688,260.008,0,254.952,0
		c-5.047,0-9.225,3.688-10.017,8.512h-8.422C235.725,3.688,231.553,0,226.497,0c-5.047,0-9.226,3.688-10.017,8.512h-8.422
		C207.27,3.688,203.098,0,198.042,0c-5.046,0-9.226,3.688-10.017,8.512h-8.422C178.814,3.688,174.643,0,169.587,0
		c-5.046,0-9.226,3.688-10.017,8.512h-8.422C150.359,3.688,146.187,0,141.132,0c-5.046,0-9.226,3.688-10.017,8.512h-8.422
		C121.902,3.688,117.723,0,112.677,0s-9.226,3.688-10.017,8.512h-8.422C93.449,3.688,89.277,0,84.222,0
		C78.611,0,74.06,4.553,74.06,10.162c0,3.651,1.936,6.847,4.83,8.639v7.192c-4.381,1.129-7.625,5.098-7.625,9.83
		c0,4.731,3.244,8.699,7.625,9.83v8.795c-4.381,1.127-7.625,5.089-7.625,9.83c0,4.732,3.244,8.699,7.625,9.83v8.795
		c-4.381,1.129-7.625,5.098-7.625,9.83c0,4.731,3.244,8.699,7.625,9.83v8.795c-4.381,1.129-7.625,5.098-7.625,9.83
		c0,4.731,3.244,8.699,7.625,9.83v8.795c-4.381,1.129-7.625,5.098-7.625,9.83c0,4.731,3.244,8.699,7.625,9.83v8.795
		c-4.381,1.129-7.625,5.098-7.625,9.83c0,4.731,3.244,8.699,7.625,9.83v8.795c-4.381,1.129-7.625,5.098-7.625,9.83
		c0,4.732,3.244,8.699,7.625,9.83v8.795C74.509,226.308,71.265,231.039,71.265,235.771z M155.685,180.843
		c-1.89,1.89-4.512,2.977-7.185,2.977c-2.673,0-5.295-1.087-7.186-2.977c-1.891-1.9-2.977-4.513-2.977-7.195
		c0-2.673,1.086-5.285,2.977-7.186c1.891-1.891,4.513-2.977,7.186-2.977c2.673,0,5.295,1.087,7.185,2.977
		c1.9,1.9,2.977,4.513,2.977,7.186C158.662,176.33,157.585,178.942,155.685,180.843z M155.685,130.527
		c-1.89,1.9-4.512,2.978-7.185,2.978c-2.673,0-5.295-1.077-7.186-2.978c-1.891-1.88-2.977-4.502-2.977-7.185
		c0-2.673,1.086-5.295,2.977-7.186c1.891-1.891,4.513-2.967,7.186-2.967c2.683,0,5.295,1.076,7.185,2.967
		c1.9,1.9,2.977,4.522,2.977,7.186C158.662,126.016,157.585,128.638,155.685,130.527z M155.685,80.223
		c-1.89,1.9-4.502,2.979-7.185,2.979c-2.673,0-5.295-1.078-7.186-2.979c-1.891-1.89-2.977-4.502-2.977-7.185
		c0-2.673,1.086-5.284,2.977-7.186c1.891-1.89,4.513-2.977,7.186-2.977c2.673,0,5.295,1.087,7.185,2.977
		c1.891,1.891,2.977,4.513,2.977,7.186C158.662,75.721,157.575,78.343,155.685,80.223z M222.757,180.843
		c-1.89,1.89-4.512,2.977-7.184,2.977c-2.672,0-5.294-1.087-7.185-2.977c-1.891-1.9-2.977-4.513-2.977-7.195
		c0-2.673,1.087-5.285,2.977-7.186c1.891-1.891,4.513-2.977,7.185-2.977c2.673,0,5.295,1.087,7.184,2.977
		c1.9,1.9,2.979,4.513,2.979,7.186C225.735,176.33,224.657,178.942,222.757,180.843z M222.757,130.527
		c-1.89,1.9-4.502,2.978-7.184,2.978c-2.672,0-5.294-1.077-7.185-2.978c-1.891-1.89-2.977-4.502-2.977-7.185
		c0-2.673,1.087-5.285,2.977-7.186c1.891-1.891,4.513-2.967,7.185-2.967c2.683,0,5.295,1.076,7.184,2.967
		c1.9,1.9,2.979,4.513,2.979,7.186C225.735,126.025,224.657,128.638,222.757,130.527z M222.757,80.223
		c-1.89,1.9-4.502,2.979-7.184,2.979c-2.672,0-5.294-1.078-7.185-2.979c-1.891-1.89-2.977-4.502-2.977-7.185
		c0-2.673,1.087-5.284,2.977-7.186c1.891-1.89,4.513-2.977,7.185-2.977c2.673,0,5.295,1.087,7.184,2.977
		c1.9,1.891,2.979,4.513,2.979,7.186C225.735,75.721,224.657,78.333,222.757,80.223z"/>
</g>
<g>
</g>
<g>
</g>
<g>
</g>
<g>
</g>
<g>
</g>
<g>
</g>
<g>
</g>
<g>
</g>
<g>
</g>
<g>
</g>
<g>
</g>
<g>
</g>
<g>
</g>
<g>
</g>
<g>
</g>
</svg>
