<?xml version="1.0" encoding="iso-8859-1"?>
<!-- Generator: Adobe Illustrator 18.0.0, SVG Export Plug-In . SVG Version: 6.00 Build 0)  -->
<!DOCTYPE svg PUBLIC "-//W3C//DTD SVG 1.1//EN" "http://www.w3.org/Graphics/SVG/1.1/DTD/svg11.dtd">
<svg version="1.1" id="Capa_1" xmlns="http://www.w3.org/2000/svg" xmlns:xlink="http://www.w3.org/1999/xlink" x="0px" y="0px"
	 viewBox="0 0 297 297" style="enable-background:new 0 0 297 297;" xml:space="preserve">
<path d="M210.014,50.121c3.684-1.229,7.673,0.765,8.902,4.453c1.229,3.688-0.767,7.674-4.454,8.902
	c-3.716,1.237-7.159,2.175-10.354,2.871l38.774,38.775c39.704-47.649,60.419-89.293,48.111-101.589
	c-8.567-8.559-31.362-1.137-60.509,17.539c4.919,0.354,12.268-0.273,22.734-3.759c3.691-1.229,7.673,0.766,8.902,4.454
	c1.229,3.688-0.766,7.673-4.453,8.9c-10.118,3.369-18.253,4.548-24.679,4.548c-8.738,0-14.309-2.176-17.438-3.983
	c-8.419,6.04-17.209,12.856-26.214,20.345l2.344,2.343C196.284,53.705,202.299,52.691,210.014,50.121z"/>
<path d="M249.484,130.621l-82.393-82.027c-1.591-1.001-3.441-1.554-5.353-1.554c-2.666,0-5.224,1.06-7.109,2.944L20.957,183.656
	c-11.923,11.922-18.488,27.83-18.488,44.79c0,16.962,6.565,32.868,18.488,44.789l5.274,5.277C38.154,290.434,54.063,297,71.023,297
	c16.961,0,32.867-6.566,44.789-18.487L249.484,144.84C253.41,140.914,253.41,134.548,249.484,130.621z M183.907,150.193
	c-14.07,14.07-28.264,7.555-34.875,3.042l-5.993,5.994c12.364-1.093,22.003,8.307,22.139,8.444c0.346,0.346,0.346,0.905,0,1.251
	c-14.071,14.071-28.266,7.556-34.876,3.044l-5.993,5.993c12.363-1.092,22.002,8.308,22.138,8.444c0.346,0.346,0.346,0.905,0,1.251
	c-14.07,14.07-28.265,7.555-34.875,3.042l-22.577,22.578c-1.899,1.899-4.979,1.899-6.879,0c-1.899-1.899-1.899-4.98,0-6.879
	l22.577-22.578c-4.513-6.611-11.028-20.805,3.042-34.876c0.346-0.346,0.905-0.346,1.251,0c0.136,0.136,9.536,9.774,8.445,22.138
	l5.993-5.993c-4.513-6.611-11.028-20.805,3.043-34.877c0.346-0.346,0.905-0.346,1.251,0c0.136,0.136,9.536,9.774,8.444,22.138
	l5.993-5.993c-4.513-6.611-11.028-20.805,3.042-34.875c0.346-0.346,0.905-0.346,1.251,0c0.136,0.136,9.536,9.774,8.445,22.138
	l6.221-6.221c1.899-1.899,4.979-1.899,6.879,0c1.899,1.899,1.899,4.98,0,6.879l-6.222,6.222c12.364-1.092,22.002,8.308,22.138,8.444
	C184.253,149.288,184.253,149.848,183.907,150.193z"/>
<g>
</g>
<g>
</g>
<g>
</g>
<g>
</g>
<g>
</g>
<g>
</g>
<g>
</g>
<g>
</g>
<g>
</g>
<g>
</g>
<g>
</g>
<g>
</g>
<g>
</g>
<g>
</g>
<g>
</g>
</svg>
