<?xml version="1.0" encoding="iso-8859-1"?>
<!-- Generator: Adobe Illustrator 18.0.0, SVG Export Plug-In . SVG Version: 6.00 Build 0)  -->
<!DOCTYPE svg PUBLIC "-//W3C//DTD SVG 1.1//EN" "http://www.w3.org/Graphics/SVG/1.1/DTD/svg11.dtd">
<svg version="1.1" id="Capa_1" xmlns="http://www.w3.org/2000/svg" xmlns:xlink="http://www.w3.org/1999/xlink" x="0px" y="0px"
	 viewBox="0 0 297 297" style="enable-background:new 0 0 297 297;" xml:space="preserve">
<g>
	<path d="M86.722,111.092c14.414-10.881,31.426-18.151,49.679-20.407V38.972c-31.238,2.76-60.084,16.074-83.129,36.398
		L86.722,111.092z"/>
	<path d="M158.645,38.813v51.646c18.544,1.917,35.869,9.016,50.571,19.839l34.946-34.547
		C220.567,54.787,190.829,41.193,158.645,38.813z"/>
	<path d="M90.417,207.906c-2.5,3.719-0.625,7.969,3.979,10.199c3.946,1.911,6.579,5.767,6.579,10.151v20.641h87.865v-20.641
		c0-4.385,2.576-8.359,6.579-10.151c4.807-2.152,7.045-6.319,5.1-10.199c-2.852-5.686-13.029-7.372-30.48-9.856l3.125,3.124
		c3.475,3.476,3.475,9.108,0,12.585c-1.737,1.736-4.014,2.605-6.292,2.605c-2.277,0-4.554-0.869-6.292-2.605l-17.401-17.401
		c-3.88,0.034-7.586,0.184-11.105,0.427l4.39,4.39c3.475,3.476,3.475,9.108,0,12.585c-1.737,1.736-4.014,2.605-6.292,2.605
		c-2.277,0-4.554-0.869-6.292-2.605l-13.867-13.867C98.793,202.421,92.716,204.486,90.417,207.906z"/>
	<path d="M45.545,172.783c4.525-17.505,13.217-33.454,24.85-46.583L37.661,91.243C23.743,107.558,13.019,126.83,6.64,147.886
		L45.545,172.783z"/>
	<path d="M42.026,196.98L1.529,171.024C0.53,178.083,0,185.274,0,192.568v55.782c0,5.435,4.41,9.837,9.849,9.837h32.178V196.98z"/>
	<path d="M254.924,197.194l0.05,60.993h32.178c5.438,0,9.849-4.402,9.849-9.837v-55.782c0-5.845-0.345-11.624-0.99-17.321
		L254.924,197.194z"/>
	<path d="M259.702,91.666l-33.96,33.573c12.271,13.536,21.381,30.168,25.945,48.464l39.951-21.342
		C285.52,129.746,274.421,109.042,259.702,91.666z"/>
	<path d="M68.161,209.417c0-8.637,5.099-22.115,29.38-29.299c12.922-3.825,30.188-6.018,47.37-6.018
		c17.251,0,34.695,2.187,47.86,5.999c24.788,7.178,29.991,20.668,29.991,29.318c0,6.773,0,16.901-11.679,25.263v23.508h21.645
		v-57.811c0-47.811-38.572-88.201-84.228-88.201c-45.657,0-84.231,40.391-84.231,88.201v57.811h14.459v-23.555
		C68.076,226.794,68.13,216.317,68.161,209.417z"/>
</g>
<g>
</g>
<g>
</g>
<g>
</g>
<g>
</g>
<g>
</g>
<g>
</g>
<g>
</g>
<g>
</g>
<g>
</g>
<g>
</g>
<g>
</g>
<g>
</g>
<g>
</g>
<g>
</g>
<g>
</g>
</svg>
