<?xml version="1.0" encoding="iso-8859-1"?>
<!-- Generator: Adobe Illustrator 18.0.0, SVG Export Plug-In . SVG Version: 6.00 Build 0)  -->
<!DOCTYPE svg PUBLIC "-//W3C//DTD SVG 1.1//EN" "http://www.w3.org/Graphics/SVG/1.1/DTD/svg11.dtd">
<svg version="1.1" id="Capa_1" xmlns="http://www.w3.org/2000/svg" xmlns:xlink="http://www.w3.org/1999/xlink" x="0px" y="0px"
	 viewBox="0 0 297 297" style="enable-background:new 0 0 297 297;" xml:space="preserve">
<g>
	<path d="M19.705,74.678C7.112,98.113-1.782,129.633,0.304,158.975c1.329,18.701,6.79,34.918,16.293,48.48
		c0.334-4.041,0.902-8.321,1.789-12.759c4.552-22.771,18.552-54.207,59.394-74.638c19.272-9.641,35.539-23.34,44.344-37.02
		C106.64,70.229,89.26,63.747,70.351,63.747C47.164,63.747,19.877,74.578,19.705,74.678z"/>
	<path d="M40.309,240.834c23.367,26.643,60.282,50.944,97.883,50.947h0.004c5.773,0,11.469-0.57,17.065-1.7
		c-3.559-1.918-7.245-4.145-10.945-6.725c-19.046-13.276-42.252-38.679-44.647-84.298c-1.067-20.347-6.547-41.568-16.506-55.979
		C27.047,174.602,39.708,238.352,40.309,240.834z"/>
	<path d="M221.486,202.682c-0.003,0-0.009,0-0.012,0c-8.678,0-17.732-1.013-26.915-3.012c-9.556-2.082-19.569-3.183-28.957-3.183
		c-12.061,0-29.986,1.781-42.201,10.9c8.108,58.306,59.668,70.067,65.559,71.224c28.839-5.938,68.199-28.743,90.322-60.596
		c10.681-15.378,16.599-31.412,17.717-47.913C282.08,185.81,257.642,202.678,221.486,202.682z"/>
	<path d="M296.143,132.162c-3.118-27.521-15.926-61.942-37.508-86.106c-12.957-14.508-27.727-24.222-44.109-29.05
		c2.258,3.371,4.483,7.078,6.554,11.105c10.622,20.65,19.247,53.963,0.028,95.399c-6.445,13.892-13.376,36.307-11.786,55.519
		c4.144,0.521,8.208,0.793,12.153,0.793c0.003,0,0.006,0,0.01,0C272.837,179.817,295.262,134.031,296.143,132.162z"/>
	<path d="M176.887,8.929c-11.111-2.387-23.301-3.71-35.363-3.71c-20.886,0-66.314,4.202-93.295,37.949
		c6.635-1.362,14.101-2.288,22.135-2.288c29.471,0,56.755,12.602,78.9,36.442c13.28,14.296,33.181,29.427,52.542,33.334
		c10.857-25.363,10.512-49.602-1.055-72.09C191.814,21.189,177.012,9.024,176.887,8.929z"/>
</g>
<g>
</g>
<g>
</g>
<g>
</g>
<g>
</g>
<g>
</g>
<g>
</g>
<g>
</g>
<g>
</g>
<g>
</g>
<g>
</g>
<g>
</g>
<g>
</g>
<g>
</g>
<g>
</g>
<g>
</g>
</svg>
