<?xml version="1.0" encoding="iso-8859-1"?>
<!-- Generator: Adobe Illustrator 18.0.0, SVG Export Plug-In . SVG Version: 6.00 Build 0)  -->
<!DOCTYPE svg PUBLIC "-//W3C//DTD SVG 1.1//EN" "http://www.w3.org/Graphics/SVG/1.1/DTD/svg11.dtd">
<svg version="1.1" id="Capa_1" xmlns="http://www.w3.org/2000/svg" xmlns:xlink="http://www.w3.org/1999/xlink" x="0px" y="0px"
	 viewBox="0 0 297 297" style="enable-background:new 0 0 297 297;" xml:space="preserve">
<g>
	<path d="M201.829,79.648c12.949,0,23.484-10.646,23.484-23.732c0-13.086-10.535-23.731-23.484-23.731s-23.484,10.646-23.484,23.731
		C178.345,69.003,188.88,79.648,201.829,79.648z"/>
	<path d="M237.748,44.309c1.171,3.661,1.81,7.56,1.81,11.607c0,20.94-16.926,37.977-37.729,37.977
		c-18.696,0-34.252-13.764-37.213-31.752L7.358,107.435C3.006,108.688,0,112.813,0,118.663h297
		C292.523,71.117,248.122,48.309,237.748,44.309z"/>
	<path d="M293,132.907H4c-2.2,0-4,1.8-4,4v25.221c0,2.2,1.8,4,4,4h289c2.2,0,4-1.8,4-4v-25.221
		C297,134.707,295.2,132.907,293,132.907z"/>
	<path d="M0,254.642c0,5.618,4.556,10.174,10.174,10.174h276.652c5.618,0,10.174-4.556,10.174-10.174v-74.271H0V254.642z
		 M248.151,197.085c1.893-1.893,4.518-2.982,7.192-2.982c2.676,0,5.301,1.089,7.193,2.982c1.894,1.892,2.982,4.517,2.982,7.192
		c0,2.677-1.088,5.301-2.982,7.193c-1.893,1.902-4.518,2.98-7.193,2.98c-2.675,0-5.3-1.078-7.192-2.98
		c-1.902-1.893-2.982-4.507-2.982-7.193C245.17,201.602,246.249,198.977,248.151,197.085z M219.726,194.104
		c5.626,0,10.174,4.559,10.174,10.174c0,5.627-4.548,10.174-10.174,10.174c-5.617,0-10.175-4.547-10.175-10.174
		C209.551,198.662,214.108,194.104,219.726,194.104z M184.116,194.104c5.615,0,10.174,4.559,10.174,10.174
		c0,5.627-4.559,10.174-10.174,10.174c-5.627,0-10.174-4.547-10.174-10.174C173.942,198.662,178.489,194.104,184.116,194.104z
		 M148.497,194.104c5.615,0,10.174,4.559,10.174,10.174c0,5.627-4.559,10.174-10.174,10.174c-5.616,0-10.174-4.547-10.174-10.174
		C138.323,198.662,142.881,194.104,148.497,194.104z M112.888,194.104c5.616,0,10.174,4.559,10.174,10.174
		c0,5.627-4.558,10.174-10.174,10.174c-5.626,0-10.174-4.547-10.174-10.174C102.714,198.662,107.262,194.104,112.888,194.104z
		 M77.268,194.104c5.627,0,10.175,4.559,10.175,10.174c0,5.627-4.548,10.174-10.175,10.174c-5.615,0-10.174-4.547-10.174-10.174
		C67.094,198.662,71.652,194.104,77.268,194.104z M34.467,197.085c1.892-1.893,4.517-2.982,7.192-2.982
		c2.677,0,5.301,1.089,7.193,2.982c1.893,1.892,2.981,4.517,2.981,7.192c0,2.677-1.088,5.301-2.981,7.193
		c-1.892,1.902-4.517,2.98-7.193,2.98c-2.676,0-5.301-1.078-7.192-2.98c-1.893-1.893-2.982-4.517-2.982-7.193
		C31.484,201.602,32.574,198.977,34.467,197.085z"/>
</g>
<g>
</g>
<g>
</g>
<g>
</g>
<g>
</g>
<g>
</g>
<g>
</g>
<g>
</g>
<g>
</g>
<g>
</g>
<g>
</g>
<g>
</g>
<g>
</g>
<g>
</g>
<g>
</g>
<g>
</g>
</svg>
