<?xml version="1.0" encoding="iso-8859-1"?>
<!-- Generator: Adobe Illustrator 18.0.0, SVG Export Plug-In . SVG Version: 6.00 Build 0)  -->
<!DOCTYPE svg PUBLIC "-//W3C//DTD SVG 1.1//EN" "http://www.w3.org/Graphics/SVG/1.1/DTD/svg11.dtd">
<svg version="1.1" id="Capa_1" xmlns="http://www.w3.org/2000/svg" xmlns:xlink="http://www.w3.org/1999/xlink" x="0px" y="0px"
	 viewBox="0 0 297 297" style="enable-background:new 0 0 297 297;" xml:space="preserve">
<g>
	<path d="M287.631,217.626h-17.904l-4.218-27.747c-4.473-0.813-7.841-1.979-10.972-3.064c-5.245-1.817-9.774-3.387-19.488-3.387
		c-9.714,0-14.243,1.569-19.488,3.387c-5.559,1.926-11.86,4.109-23.781,4.109c-11.922,0-18.224-2.184-23.782-4.109
		c-5.246-1.817-9.775-3.387-19.49-3.387c-9.714,0-14.243,1.569-19.489,3.387c-5.559,1.926-11.86,4.109-23.782,4.109
		c-11.923,0-18.225-2.184-23.785-4.109c-5.246-1.817-9.775-3.387-19.491-3.387s-14.246,1.569-19.492,3.387
		c-3.132,1.085-6.501,2.252-10.976,3.064l-4.218,27.747H9.369c-5.175,0-9.369,4.195-9.369,9.369c0,5.175,4.194,9.369,9.369,9.369
		h278.262c5.174,0,9.369-4.194,9.369-9.369C297,221.821,292.805,217.626,287.631,217.626z M216.001,195.188
		c1.227-1.218,2.914-1.921,4.639-1.921c1.724,0,3.419,0.703,4.638,1.921c1.227,1.218,1.92,2.914,1.92,4.638s-0.693,3.419-1.92,4.638
		c-1.219,1.218-2.914,1.92-4.638,1.92c-1.725,0-3.411-0.702-4.639-1.92c-1.218-1.219-1.92-2.914-1.92-4.638
		S214.783,196.405,216.001,195.188z M143.859,195.188c1.227-1.218,2.914-1.921,4.638-1.921c1.724,0,3.419,0.703,4.638,1.921
		c1.227,1.218,1.921,2.914,1.921,4.638s-0.693,3.419-1.921,4.638c-1.219,1.218-2.914,1.92-4.638,1.92
		c-1.724,0-3.411-0.702-4.638-1.92c-1.218-1.219-1.921-2.914-1.921-4.638S142.642,196.405,143.859,195.188z M71.718,195.188
		c1.227-1.218,2.914-1.921,4.638-1.921c1.732,0,3.419,0.703,4.638,1.921c1.227,1.218,1.921,2.914,1.921,4.638
		s-0.694,3.419-1.921,4.638c-1.219,1.218-2.914,1.92-4.638,1.92c-1.724,0-3.411-0.702-4.638-1.92
		c-1.218-1.219-1.921-2.905-1.921-4.638C69.797,198.102,70.5,196.405,71.718,195.188z"/>
	<path d="M86.867,88.333c9.216,0,14.241,2.444,18.279,4.408c3.546,1.725,6.347,3.087,12.541,3.087c6.193,0,8.994-1.362,12.538-3.087
		c4.038-1.964,9.063-4.408,18.278-4.408c9.214,0,14.24,2.444,18.276,4.408c3.547,1.725,6.347,3.087,12.541,3.087
		c6.194,0,8.994-1.362,12.54-3.087c4.037-1.965,9.062-4.408,18.276-4.408c9.214,0,14.239,2.444,18.276,4.408
		c2.166,1.054,4.058,1.97,6.611,2.525l-0.112-0.732c-2.84-18.691-20.532-33.898-39.438-33.898l-93.952-0.001
		c-18.904,0-36.596,15.206-39.438,33.898l-0.112,0.733c2.555-0.555,4.447-1.472,6.614-2.525
		C72.626,90.776,77.651,88.333,86.867,88.333z"/>
	<path d="M238.741,119.723l-1.662-10.939c-6.819-0.568-10.973-2.578-14.403-4.246c-3.544-1.726-6.345-3.088-12.538-3.088
		s-8.994,1.362-12.539,3.088c-4.037,1.963-9.062,4.408-18.277,4.408c-9.215,0-14.239-2.445-18.277-4.408
		c-3.546-1.726-6.346-3.088-12.54-3.088c-6.194,0-8.994,1.362-12.541,3.088c-4.036,1.964-9.061,4.408-18.275,4.408
		c-9.216,0-14.24-2.444-18.278-4.408c-3.546-1.726-6.347-3.088-12.542-3.088c-6.195,0-8.996,1.362-12.542,3.088
		c-3.431,1.668-7.585,3.678-14.405,4.247l-1.662,10.938H238.741z"/>
	<path d="M61.959,170.313c11.922,0,18.225,2.183,23.784,4.109c5.247,1.816,9.776,3.386,19.492,3.386
		c9.715,0,14.244-1.569,19.489-3.386c5.56-1.927,11.861-4.109,23.782-4.109c11.922,0,18.224,2.183,23.783,4.109
		c5.245,1.816,9.775,3.386,19.489,3.386s14.243-1.569,19.488-3.386c5.559-1.927,11.86-4.109,23.781-4.109s18.222,2.183,23.781,4.109
		c1.53,0.529,3.002,1.037,4.558,1.492l-2.456-16.158c-2.372-15.618-17.156-28.325-32.954-28.325H69.022
		c-15.798,0-30.582,12.707-32.954,28.325l-2.456,16.159c1.557-0.455,3.029-0.963,4.562-1.493
		C43.733,172.495,50.036,170.313,61.959,170.313z"/>
</g>
<g>
</g>
<g>
</g>
<g>
</g>
<g>
</g>
<g>
</g>
<g>
</g>
<g>
</g>
<g>
</g>
<g>
</g>
<g>
</g>
<g>
</g>
<g>
</g>
<g>
</g>
<g>
</g>
<g>
</g>
</svg>
