<?xml version="1.0" encoding="iso-8859-1"?>
<!-- Generator: Adobe Illustrator 18.0.0, SVG Export Plug-In . SVG Version: 6.00 Build 0)  -->
<!DOCTYPE svg PUBLIC "-//W3C//DTD SVG 1.1//EN" "http://www.w3.org/Graphics/SVG/1.1/DTD/svg11.dtd">
<svg version="1.1" id="Capa_1" xmlns="http://www.w3.org/2000/svg" xmlns:xlink="http://www.w3.org/1999/xlink" x="0px" y="0px"
	 viewBox="0 0 297 297" style="enable-background:new 0 0 297 297;" xml:space="preserve">
<g>
	<path d="M169.665,102.158c3.001-3.519,17.532-19.008,40.671-19.008c5.174,0,9.369-4.195,9.369-9.369
		c0-5.174-4.195-9.369-9.369-9.369c-27.77,0-46.183,16.221-53.116,23.588C163.221,90.599,167.84,95.793,169.665,102.158z"/>
	<path d="M148.5,117.113c4.908,0,8.9-3.992,8.9-8.9c0-4.908-3.992-8.9-8.9-8.9s-8.9,3.992-8.9,8.9
		C139.6,113.121,143.592,117.113,148.5,117.113z"/>
	<path d="M287.631,232.588c5.174,0,9.369-4.195,9.369-9.369c0-5.174-4.195-9.369-9.369-9.369h-21.55v-23.727
		c-7.516,6.945-17.534,11.194-28.524,11.194c-14.32,0-27.596-7.376-35.309-19.216c-5.9,1.712-12.408,1.728-18.428-0.009
		c-7.715,11.845-20.996,19.225-35.32,19.225s-27.605-7.38-35.32-19.225c-6.021,1.736-12.528,1.721-18.428,0.009
		c-7.714,11.84-20.989,19.216-35.31,19.216c-10.99,0-21.009-4.249-28.524-11.193v23.726H9.369c-5.175,0-9.369,4.195-9.369,9.369
		c0,5.174,4.194,9.369,9.369,9.369H287.631z"/>
	<path d="M59.441,188.201c11.3,0,21.662-6.688,26.398-17.035c0.745-1.629,2.126-2.883,3.819-3.469
		c1.692-0.585,3.552-0.453,5.146,0.367c2.858,1.473,5.942,2.219,9.164,2.219c3.223,0,6.304-0.746,9.154-2.216
		c1.594-0.823,3.455-0.956,5.147-0.371c1.695,0.585,3.075,1.839,3.822,3.469c4.739,10.349,15.104,17.036,26.405,17.036
		c11.302,0,21.666-6.688,26.405-17.036c0.747-1.63,2.128-2.884,3.822-3.469c1.693-0.585,3.555-0.452,5.147,0.371
		c2.851,1.47,5.932,2.216,9.154,2.216c3.222,0,6.306-0.746,9.165-2.219c1.593-0.82,3.453-0.953,5.146-0.367
		c1.693,0.586,3.074,1.84,3.819,3.469c4.737,10.348,15.099,17.035,26.398,17.035c14.117,0,25.911-10.191,28.524-23.651v-34.085
		c0-5.174-4.195-9.369-9.369-9.369h-90.373c-4.004,5.527-10.507,9.135-17.839,9.135s-13.835-3.607-17.839-9.135H40.286
		c-5.174,0-9.369,4.195-9.369,9.369v34.09C33.532,178.013,45.326,188.201,59.441,188.201z"/>
</g>
<g>
</g>
<g>
</g>
<g>
</g>
<g>
</g>
<g>
</g>
<g>
</g>
<g>
</g>
<g>
</g>
<g>
</g>
<g>
</g>
<g>
</g>
<g>
</g>
<g>
</g>
<g>
</g>
<g>
</g>
</svg>
