<?xml version="1.0" encoding="iso-8859-1"?>
<!-- Generator: Adobe Illustrator 18.0.0, SVG Export Plug-In . SVG Version: 6.00 Build 0)  -->
<!DOCTYPE svg PUBLIC "-//W3C//DTD SVG 1.1//EN" "http://www.w3.org/Graphics/SVG/1.1/DTD/svg11.dtd">
<svg version="1.1" id="Capa_1" xmlns="http://www.w3.org/2000/svg" xmlns:xlink="http://www.w3.org/1999/xlink" x="0px" y="0px"
	 viewBox="0 0 297 297" style="enable-background:new 0 0 297 297;" xml:space="preserve">
<g>
	<path d="M144.122,179.129c-0.461-0.251-1.51-0.983-2.367-1.582c-5.361-3.744-14.336-10.01-29.992-10.01
		c-0.191,0-0.371,0.013-0.563,0.015c3.391-12.41,9.598-18.235,17.182-25.34c8.936-8.367,20.053-18.78,27.52-41.177
		c9.387-28.16-6.049-56.823-22.375-77.344c7.813,7.01,15.984,15.191,23.727,24.482c32.037,38.446,43.629,79.098,34.633,121.114
		c-3.832-1.055-8.27-1.75-13.453-1.75c-15.654,0-24.629,6.266-29.99,10.01c-0.857,0.599-1.906,1.331-2.367,1.582
		C146.075,179.129,145.295,179.633,144.122,179.129z"/>
	<path d="M212.749,179.129c0.461-0.25,1.512-0.983,2.371-1.584c5.361-3.743,14.336-10.008,29.99-10.008
		c6.658,0,13.01,2.859,17.424,7.844c0.332,0.376,0.646,0.764,0.953,1.159c10.385-24.475,11.285-48.428,2.631-71.437
		C244.958,48.838,171.942,14.153,135.67,0c11.387,9.242,24.363,21.216,36.482,35.757c36.893,44.272,49.639,93.218,37.486,142.631
		C209.639,178.388,209.454,181.356,212.749,179.129z"/>
	<path d="M67.315,188.679c-4.572-3.192-10.834-7.564-22.219-7.564c-2.779,0-5.428,1.192-7.268,3.277
		c-1.842,2.084-2.699,4.858-2.355,7.617l8.639,69.433C46.377,281.049,64.278,297,84.016,297H206.19
		c19.703,0,37.684-15.911,40.084-35.478l8.463-69.54c0.334-2.756-0.527-5.522-2.367-7.601c-1.842-2.078-4.484-3.268-7.26-3.268
		c-11.385,0-17.648,4.372-22.221,7.564c-3.762,2.625-5.834,4.072-11.117,4.072c-5.285,0-7.357-1.446-11.119-4.072
		c-4.572-3.192-10.836-7.564-22.221-7.564c-11.385,0-17.646,4.372-22.219,7.564c-3.76,2.626-5.832,4.072-11.115,4.072
		s-7.355-1.446-11.115-4.072c-4.572-3.192-10.836-7.564-22.221-7.564c-11.383,0-17.645,4.372-22.217,7.564
		c-3.762,2.626-5.834,4.072-11.115,4.072C73.147,192.751,71.075,191.305,67.315,188.679z M186.688,281.064l9.764-72.519
		c0.66-4.906,5.531-8.387,10.885-7.788c5.352,0.605,9.154,5.076,8.494,9.983l-9.764,72.518c-0.609,4.533-4.818,7.855-9.676,7.855
		c-0.4,0-0.803-0.023-1.211-0.068C189.833,290.439,186.028,285.97,186.688,281.064z M134.833,210.39
		c0-4.946,4.373-8.954,9.764-8.954c5.393,0,9.762,4.008,9.762,8.954v72.367c0,4.945-4.369,8.953-9.762,8.953
		c-5.391,0-9.764-4.008-9.764-8.953V210.39z M93.754,208.545l9.764,72.519c0.66,4.906-3.145,9.375-8.492,9.981
		c-0.408,0.045-0.813,0.068-1.211,0.068c-4.859,0-9.066-3.32-9.676-7.855l-9.764-72.518c-0.66-4.907,3.143-9.378,8.494-9.983
		C88.227,200.156,93.092,203.639,93.754,208.545z"/>
	<path d="M77.454,179.129c-0.461-0.251-1.51-0.983-2.365-1.582c-5.363-3.744-14.338-10.01-29.992-10.01
		c-5.947,0-11.643,2.285-15.94,6.324c-2.246-7.955-4.16-16.787-4.16-23.779c0-20.094,4.012-41.93,51.967-68.453l1.359-0.75
		c9.074-4.992,17.645-9.709,28.131-25.758c4.805-7.353,7.906-15.633,8.762-23.212c15.148,18.011,29.203,42.239,22.285,62.993
		c-5.912,17.733-13.91,25.224-22.375,33.152c-10.254,9.602-20.777,19.488-24.606,44.172c-3.676,1.791-6.527,3.77-8.746,5.32
		c-0.859,0.599-1.908,1.331-2.369,1.582C79.405,179.129,78.418,179.742,77.454,179.129z"/>
</g>
<g>
</g>
<g>
</g>
<g>
</g>
<g>
</g>
<g>
</g>
<g>
</g>
<g>
</g>
<g>
</g>
<g>
</g>
<g>
</g>
<g>
</g>
<g>
</g>
<g>
</g>
<g>
</g>
<g>
</g>
</svg>
