<?xml version="1.0" encoding="iso-8859-1"?>
<!-- Generator: Adobe Illustrator 18.0.0, SVG Export Plug-In . SVG Version: 6.00 Build 0)  -->
<!DOCTYPE svg PUBLIC "-//W3C//DTD SVG 1.1//EN" "http://www.w3.org/Graphics/SVG/1.1/DTD/svg11.dtd">
<svg version="1.1" id="Capa_1" xmlns="http://www.w3.org/2000/svg" xmlns:xlink="http://www.w3.org/1999/xlink" x="0px" y="0px"
	 viewBox="0 0 297 297" style="enable-background:new 0 0 297 297;" xml:space="preserve">
<g>
	<path d="M233.542,79.586c-26.317,36.973-26.785,79.079-25.593,96.537c9.324,2.888,15.206,9.46,18.428,16.59
		c23.72-6.533,61.554-22.256,61.554-47.352C287.931,97.929,241.929,82.2,233.542,79.586z"/>
	<path d="M63.479,79.586c-8.29,2.58-54.409,18.293-54.409,65.774c0,24.912,38.346,40.83,61.567,47.327
		c3.288-7.262,9.342-13.934,18.979-16.726C90.654,158.36,89.786,116.427,63.479,79.586z"/>
	<path d="M145.154,43.35c-23.981,0-46.8,5.057-68.022,15.054c38.026,46.713,37.666,101.628,35.955,121.975
		c7.258,4.064,21.063,10.309,37.378,10.309c11.932,0,23.359-3.352,34.052-9.976c-1.878-20.098-2.791-75.009,34.987-121.845
		C204.207,52.402,177.087,43.35,145.154,43.35z"/>
	<path d="M255.422,207.678c9.593,10.528,15.137,20.387,15.137,40.308c0,3.049,1.259,4.892,3.74,5.478
		c4.229,0.998,10.471-1.948,14.882-10.771c11.097-22.196,8.196-44.83,4.538-58.533C282.83,194.63,268.54,202.286,255.422,207.678z"
		/>
	<path d="M3.281,184.159c-3.658,13.703-6.559,36.338,4.538,58.534c4.414,8.826,10.66,11.771,14.882,10.771
		c2.481-0.586,3.74-2.429,3.74-5.478c0-19.92,5.545-29.778,15.138-40.308C28.46,202.285,14.172,194.63,3.281,184.159z"/>
</g>
<g>
</g>
<g>
</g>
<g>
</g>
<g>
</g>
<g>
</g>
<g>
</g>
<g>
</g>
<g>
</g>
<g>
</g>
<g>
</g>
<g>
</g>
<g>
</g>
<g>
</g>
<g>
</g>
<g>
</g>
</svg>
