<?xml version="1.0" encoding="iso-8859-1"?>
<!-- Generator: Adobe Illustrator 18.0.0, SVG Export Plug-In . SVG Version: 6.00 Build 0)  -->
<!DOCTYPE svg PUBLIC "-//W3C//DTD SVG 1.1//EN" "http://www.w3.org/Graphics/SVG/1.1/DTD/svg11.dtd">
<svg version="1.1" id="Capa_1" xmlns="http://www.w3.org/2000/svg" xmlns:xlink="http://www.w3.org/1999/xlink" x="0px" y="0px"
	 viewBox="0 0 297 297" style="enable-background:new 0 0 297 297;" xml:space="preserve">
<g>
	<path d="M79.792,192.924c8.326,9.883,20.864,16.185,34.864,16.185c13.716,0,26.001-6.269,34.178-16.109
		c8.274,9.841,20.71,16.109,34.592,16.109c13.716,0,26.001-6.269,34.178-16.109c8.274,9.841,20.71,16.109,34.592,16.109
		c24.705,0,44.805-20.099,44.805-44.804c0-55.096-48.265-101.435-113.122-114.014c-2.775,2.735-5.958,5.451-9.574,8.141
		c-9.568,7.115-19.07,11.846-19.471,12.043c-2.039,1.01-4.254,1.515-6.471,1.515c-2.255,0-4.51-0.524-6.577-1.567
		c-0.398-0.201-9.862-5.01-19.373-12.202c-3.473-2.628-6.533-5.275-9.221-7.938C48.301,62.84,0,109.189,0,164.305
		c0,24.705,20.342,44.804,45.346,44.804C59.179,209.108,71.567,202.807,79.792,192.924z"/>
	<path d="M182.888,23.157c0.037-9.496-7.63-17.225-17.125-17.265c-0.024,0-0.047,0-0.071,0c-9.463,0-17.153,7.652-17.192,17.121
		c0.039-9.494-7.63-17.223-17.123-17.263c-0.024,0-0.049,0-0.073,0c-9.461,0.001-17.152,7.654-17.19,17.123
		c-0.067,17.192,34.25,34.527,34.25,34.527S182.818,40.349,182.888,23.157z"/>
	<path d="M252.195,223.696c-12.527,0-24.548-3.896-34.54-10.978c-9.902,7.082-21.813,10.978-34.23,10.978
		c-12.527,0-24.548-3.896-34.54-10.978c-9.902,7.082-21.813,10.978-34.229,10.978c-12.636,0-24.751-3.924-34.812-11.058
		c-9.968,7.134-21.973,11.058-34.499,11.058c-3.812,0-7.537-0.369-11.153-1.047l4.761,30.929
		c3.196,20.772,22.896,37.671,43.911,37.671h131.271c21.016,0,40.715-16.898,43.91-37.67l4.748-30.849
		C259.352,223.354,255.814,223.696,252.195,223.696z"/>
</g>
<g>
</g>
<g>
</g>
<g>
</g>
<g>
</g>
<g>
</g>
<g>
</g>
<g>
</g>
<g>
</g>
<g>
</g>
<g>
</g>
<g>
</g>
<g>
</g>
<g>
</g>
<g>
</g>
<g>
</g>
</svg>
