<?xml version="1.0" encoding="iso-8859-1"?>
<!-- Generator: Adobe Illustrator 18.0.0, SVG Export Plug-In . SVG Version: 6.00 Build 0)  -->
<!DOCTYPE svg PUBLIC "-//W3C//DTD SVG 1.1//EN" "http://www.w3.org/Graphics/SVG/1.1/DTD/svg11.dtd">
<svg version="1.1" id="Capa_1" xmlns="http://www.w3.org/2000/svg" xmlns:xlink="http://www.w3.org/1999/xlink" x="0px" y="0px"
	 viewBox="0 0 297 297" style="enable-background:new 0 0 297 297;" xml:space="preserve">
<g>
	<path d="M105.188,137.619c4.807-19.716,22.372-34.338,43.312-34.338c24.643,0,44.621,20.245,44.621,45.219
		c0,10.096-3.266,19.415-8.784,26.942c9.467,8.378,41.521,32.329,99.645,33.872c8.342-18.562,12.984-39.146,12.984-60.814
		C296.966,66.487,230.496,0,148.5,0C85.775,0,32.135,38.91,10.389,93.912C11.346,99.058,21.336,137.422,105.188,137.619z"/>
	<path d="M167.423,189.453c-5.747,2.732-12.156,4.266-18.923,4.266c-20.943,0-38.51-14.625-43.315-34.348
		c-59.717-0.135-88.897-18.486-103.114-35.458c-1.333,7.999-2.037,16.21-2.037,24.587c0,82.013,66.47,148.5,148.466,148.5
		c51.68,0,97.185-26.417,123.773-66.481C209.588,225.958,176.206,197.964,167.423,189.453z M64.929,226.436
		c-1.621,1.619-3.861,2.545-6.156,2.545c-2.284,0-4.535-0.926-6.145-2.545c-1.621-1.621-2.557-3.861-2.557-6.156
		c0-2.283,0.936-4.535,2.557-6.156c1.609-1.609,3.85-2.543,6.145-2.543c2.295,0,4.535,0.934,6.156,2.543
		c1.619,1.621,2.544,3.873,2.544,6.156C67.473,222.574,66.548,224.814,64.929,226.436z M64.929,190.546
		c-1.621,1.621-3.861,2.544-6.156,2.544c-2.284,0-4.524-0.923-6.145-2.544c-1.621-1.621-2.557-3.862-2.557-6.155
		c0-2.285,0.936-4.535,2.557-6.155c1.62-1.622,3.86-2.546,6.145-2.546c2.295,0,4.535,0.924,6.156,2.546
		c1.619,1.62,2.544,3.87,2.544,6.155C67.473,186.673,66.548,188.925,64.929,190.546z M100.817,208.49
		c-1.62,1.619-3.861,2.545-6.155,2.545c-2.284,0-4.524-0.926-6.156-2.545c-1.61-1.621-2.544-3.861-2.544-6.156
		c0-2.294,0.934-4.535,2.544-6.155c1.621-1.621,3.872-2.545,6.156-2.545c2.294,0,4.535,0.924,6.155,2.545
		c1.62,1.62,2.546,3.861,2.546,6.155C103.363,204.629,102.437,206.869,100.817,208.49z"/>
</g>
<g>
</g>
<g>
</g>
<g>
</g>
<g>
</g>
<g>
</g>
<g>
</g>
<g>
</g>
<g>
</g>
<g>
</g>
<g>
</g>
<g>
</g>
<g>
</g>
<g>
</g>
<g>
</g>
<g>
</g>
</svg>
