<?xml version="1.0" encoding="iso-8859-1"?>
<!-- Generator: Adobe Illustrator 18.0.0, SVG Export Plug-In . SVG Version: 6.00 Build 0)  -->
<!DOCTYPE svg PUBLIC "-//W3C//DTD SVG 1.1//EN" "http://www.w3.org/Graphics/SVG/1.1/DTD/svg11.dtd">
<svg version="1.1" id="Capa_1" xmlns="http://www.w3.org/2000/svg" xmlns:xlink="http://www.w3.org/1999/xlink" x="0px" y="0px"
	 viewBox="0 0 297 297" style="enable-background:new 0 0 297 297;" xml:space="preserve">
<g>
	<path d="M275.388,182.433H21.223c-5.316,0-9.627,4.311-9.627,9.628c0,26.166,14.921,52.787,40.935,73.036
		C78.964,285.669,112.976,297,148.306,297c35.33,0,69.343-11.331,95.775-31.903c26.015-20.249,40.934-46.87,40.934-73.036
		C285.015,186.744,280.705,182.433,275.388,182.433z"/>
	<path d="M103.684,86.198c-0.741,2.443-0.481,5.081,0.723,7.333l14.43,26.991c1.734,3.243,5.061,5.09,8.499,5.09
		c1.531,0,3.085-0.367,4.53-1.14l148.45-79.363c2.251-1.203,3.933-3.252,4.673-5.695c0.741-2.444,0.481-5.082-0.723-7.334
		L269.836,5.09C268.102,1.847,264.775,0,261.338,0c-1.533,0-3.086,0.366-4.531,1.139L108.358,80.502
		C106.106,81.706,104.425,83.754,103.684,86.198z"/>
	<path d="M38.697,152.902c8.013,14.988,23.556,24.3,40.563,24.3c7.501,0,14.983-1.881,21.635-5.438l87.06-46.542
		c1.801-0.963,3.146-2.602,3.738-4.557c0.594-1.955,0.386-4.064-0.578-5.866l-4.608-8.621l-50.101,26.784
		c-2.785,1.489-5.922,2.276-9.07,2.276c-7.123,0-13.633-3.9-16.988-10.178L95.919,98.072c-2.427-4.535-2.94-9.745-1.447-14.668
		c1.492-4.922,4.812-8.968,9.348-11.392l50.102-26.786l-4.54-8.492c-2.005-3.752-6.673-5.169-10.423-3.161L18.16,98.152
		c-1.802,0.963-3.147,2.602-3.739,4.557c-0.593,1.955-0.386,4.064,0.578,5.866L38.697,152.902z"/>
</g>
<g>
</g>
<g>
</g>
<g>
</g>
<g>
</g>
<g>
</g>
<g>
</g>
<g>
</g>
<g>
</g>
<g>
</g>
<g>
</g>
<g>
</g>
<g>
</g>
<g>
</g>
<g>
</g>
<g>
</g>
</svg>
