<?xml version="1.0" encoding="iso-8859-1"?>
<!-- Generator: Adobe Illustrator 18.0.0, SVG Export Plug-In . SVG Version: 6.00 Build 0)  -->
<!DOCTYPE svg PUBLIC "-//W3C//DTD SVG 1.1//EN" "http://www.w3.org/Graphics/SVG/1.1/DTD/svg11.dtd">
<svg version="1.1" id="Capa_1" xmlns="http://www.w3.org/2000/svg" xmlns:xlink="http://www.w3.org/1999/xlink" x="0px" y="0px"
	 viewBox="0 0 297 297" style="enable-background:new 0 0 297 297;" xml:space="preserve">
<g>
	<path d="M186.979,84.516c5.859-45.59,5.861-51.494,5.861-53.568c0-14.875-12.104-26.979-26.979-26.979
		c-14.877,0-26.979,12.104-26.979,26.979c0,2.074,0.002,7.978,5.86,53.568H186.979z"/>
	<path d="M221.307,213.9v-96.197c0-11.404-9.277-20.682-20.682-20.682h-69.53c-11.404,0-20.682,9.277-20.682,20.682v83.992
		c15.428-12.295,25.408-17.504,31.354-19.691V137.92l-22.168-21.904c-2.646-2.615-2.671-6.879-0.058-9.523
		c2.615-2.646,6.88-2.668,9.522-0.057l22.202,21.939h31.954c3.72,0,6.734,3.014,6.734,6.732c0,3.721-3.015,6.734-6.734,6.734
		h-27.986v40.117c7.314,1.98,21.28,6.154,35.418,12.541C203.89,200.48,214.116,206.961,221.307,213.9z"/>
	<path d="M233.813,240.125c0,3.719-2.835,6.734-6.554,6.734c-3.719,0-6.733-3.016-6.733-6.734c0-23.455-52.146-41.188-72.263-46.072
		c-3.595,0.947-22.031,7.566-64.441,49.979c-2.63,2.627-6.893,2.627-9.523,0c-2.629-2.631-2.629-6.895,0-9.525
		c8.777-8.775,16.62-16.129,23.609-22.291v-62.057c-21.77,12.482-68.88,42.656-96.291,83.775c-2.631,3.943-1.994,9.217,1.5,12.422
		c2.077,1.906,51.9,46.676,141.416,46.676c87.969,0,144.627-26.592,146.996-27.723c2.328-1.113,4.112-3.115,4.95-5.557
		c0.838-2.441,0.66-5.117-0.494-7.424c-0.684-1.371-16.514-32.631-62.172-94.617C233.813,157.711,233.813,219.521,233.813,240.125z"
		/>
</g>
<g>
</g>
<g>
</g>
<g>
</g>
<g>
</g>
<g>
</g>
<g>
</g>
<g>
</g>
<g>
</g>
<g>
</g>
<g>
</g>
<g>
</g>
<g>
</g>
<g>
</g>
<g>
</g>
<g>
</g>
</svg>
