<?xml version="1.0" encoding="iso-8859-1"?>
<!-- Generator: Adobe Illustrator 18.0.0, SVG Export Plug-In . SVG Version: 6.00 Build 0)  -->
<!DOCTYPE svg PUBLIC "-//W3C//DTD SVG 1.1//EN" "http://www.w3.org/Graphics/SVG/1.1/DTD/svg11.dtd">
<svg version="1.1" id="Capa_1" xmlns="http://www.w3.org/2000/svg" xmlns:xlink="http://www.w3.org/1999/xlink" x="0px" y="0px"
	 viewBox="0 0 297 297" style="enable-background:new 0 0 297 297;" xml:space="preserve">
<g>
	<path d="M124.238,56.473c7.957-2.48,16.075-3.76,24.262-3.76c8.186,0,16.305,1.279,24.262,3.76
		c12.343-7.982,20.533-21.855,20.533-37.617C193.295,0.91,180.707,0,178.184,0c-4.561,0-8.785,1.805-13.676,3.895
		c-4.985,2.131-10.636,4.545-16.008,4.545c-5.372,0-11.023-2.414-16.009-4.545C127.602,1.805,123.377,0,118.816,0
		c-2.523,0-15.111,0.91-15.111,18.855C103.705,34.617,111.895,48.49,124.238,56.473z"/>
	<path d="M224.004,116.051c-21.528-31.439-48.343-48.754-75.504-48.754c-27.161,0-53.976,17.314-75.505,48.756
		c-18.969,27.705-30.752,62.912-30.752,91.879c0,27.879,10.866,50.981,31.425,66.807C92.587,289.303,118.464,297,148.5,297
		c30.036,0,55.913-7.697,74.832-22.262c20.558-15.826,31.425-38.928,31.425-66.807C254.757,178.965,242.974,143.758,224.004,116.051
		z M178.452,145.289c0.553,0,1,0.447,1,1c0,22.501-16.559,28.641-25.452,30.319v9.584c9.012-10.759,24.234-10.949,24.452-10.949
		c0.553,0,1,0.447,1,1c0,22.499-16.559,28.639-25.452,30.317v36.103c0,3.037-2.463,5.5-5.5,5.5c-3.037,0-5.5-2.463-5.5-5.5v-36.103
		c-8.894-1.677-25.452-7.817-25.452-30.317c0-0.553,0.447-1,1-1c0.217,0,15.44,0.19,24.452,10.948v-9.583
		c-8.894-1.677-25.452-7.818-25.452-30.319c0-0.553,0.447-1,1-1c0.217,0,15.44,0.19,24.452,10.949v-9.583
		c-8.894-1.677-25.452-7.817-25.452-30.317c0-0.553,0.447-1,1-1c0.217,0,15.44,0.19,24.452,10.948v-9.948c0-3.037,2.463-5.5,5.5-5.5
		c3.037,0,5.5,2.463,5.5,5.5v9.949c9.012-10.759,24.234-10.949,24.452-10.949c0.553,0,1,0.447,1,1
		c0,22.5-16.559,28.64-25.452,30.317v9.585C163.012,145.48,178.234,145.289,178.452,145.289z"/>
</g>
<g>
</g>
<g>
</g>
<g>
</g>
<g>
</g>
<g>
</g>
<g>
</g>
<g>
</g>
<g>
</g>
<g>
</g>
<g>
</g>
<g>
</g>
<g>
</g>
<g>
</g>
<g>
</g>
<g>
</g>
</svg>
