<?xml version="1.0" encoding="iso-8859-1"?>
<!-- Generator: Adobe Illustrator 18.0.0, SVG Export Plug-In . SVG Version: 6.00 Build 0)  -->
<!DOCTYPE svg PUBLIC "-//W3C//DTD SVG 1.1//EN" "http://www.w3.org/Graphics/SVG/1.1/DTD/svg11.dtd">
<svg version="1.1" id="Capa_1" xmlns="http://www.w3.org/2000/svg" xmlns:xlink="http://www.w3.org/1999/xlink" x="0px" y="0px"
	 viewBox="0 0 297 297" style="enable-background:new 0 0 297 297;" xml:space="preserve">
<path d="M218.921,80.861c8.254,8.302,14.881,20.905,14.881,39.996c0,4.144-3.358,7.502-7.502,7.502
	c-4.144,0-7.502-3.358-7.502-7.502c0-41.521-40.283-41.998-41.998-41.998h-20.798v46.861c0,4.144-3.358,7.502-7.502,7.502
	c-4.144,0-7.502-3.358-7.502-7.502V78.859H120.2c-0.086,0.001-11.156,0.137-21.813,5.606c-13.395,6.876-20.186,19.119-20.186,36.392
	c0,4.144-3.358,7.502-7.502,7.502s-7.502-3.358-7.502-7.502c0-19.091,6.627-31.694,14.881-39.996C31.592,97.587,0,130.352,0,168.041
	c0,54.677,66.486,50,148.5,50s148.5,4.677,148.5-50C297,130.352,265.408,97.587,218.921,80.861z"/>
<g>
</g>
<g>
</g>
<g>
</g>
<g>
</g>
<g>
</g>
<g>
</g>
<g>
</g>
<g>
</g>
<g>
</g>
<g>
</g>
<g>
</g>
<g>
</g>
<g>
</g>
<g>
</g>
<g>
</g>
</svg>
