<?xml version="1.0" encoding="iso-8859-1"?>
<!-- Generator: Adobe Illustrator 18.0.0, SVG Export Plug-In . SVG Version: 6.00 Build 0)  -->
<!DOCTYPE svg PUBLIC "-//W3C//DTD SVG 1.1//EN" "http://www.w3.org/Graphics/SVG/1.1/DTD/svg11.dtd">
<svg version="1.1" id="Capa_1" xmlns="http://www.w3.org/2000/svg" xmlns:xlink="http://www.w3.org/1999/xlink" x="0px" y="0px"
	 viewBox="0 0 297 297" style="enable-background:new 0 0 297 297;" xml:space="preserve">
<path d="M189.224,205.141c74.528,0,107.776-9.056,107.776-44.94c0-32.866-28.402-50.28-63.173-59.289
	c-0.325,1.865-1.211,3.618-2.558,4.965c-1.721,1.721-4.101,2.703-6.538,2.703c-2.426,0-4.805-0.982-6.526-2.703
	c-1.722-1.721-2.714-4.102-2.714-6.538c0-0.78,0.113-1.553,0.307-2.302c-21.185-3.719-43.272-4.981-61.888-5.177
	c0.396,0.284,0.777,0.594,1.124,0.94c1.721,1.722,2.703,4.112,2.703,6.538c0,2.426-0.982,4.806-2.703,6.538
	c-1.721,1.721-4.102,2.703-6.537,2.703c-2.427,0-4.817-0.982-6.527-2.703c-1.721-1.721-2.714-4.102-2.714-6.538
	c0-2.438,0.993-4.816,2.714-6.538c0.348-0.347,0.728-0.656,1.124-0.94c-18.617,0.195-40.708,1.458-61.896,5.178
	c0.194,0.749,0.305,1.521,0.305,2.301c0,2.437-0.982,4.817-2.702,6.538c-1.722,1.721-4.102,2.703-6.538,2.703
	c-2.439,0-4.817-0.982-6.527-2.703c-1.347-1.347-2.239-3.099-2.567-4.963C28.399,109.921,0,127.335,0,160.2
	c0,17.93,7.794,28.212,26.058,34.384c20.64,6.974,51.688,10.557,81.719,10.557H189.224z M237.265,130.918
	c1.721-1.722,4.1-2.703,6.526-2.703c2.436,0,4.816,0.982,6.538,2.703c1.72,1.722,2.702,4.111,2.702,6.538
	c0,2.436-0.982,4.816-2.702,6.537c-1.722,1.721-4.102,2.703-6.538,2.703c-2.427,0-4.806-0.982-6.526-2.703
	c-1.722-1.721-2.715-4.101-2.715-6.537C234.55,135.019,235.543,132.64,237.265,130.918z M199.146,149.977
	c1.722-1.722,4.101-2.702,6.526-2.702c2.437,0,4.816,0.98,6.538,2.702c1.721,1.722,2.703,4.112,2.703,6.538
	c0,2.437-0.982,4.816-2.703,6.538c-1.722,1.72-4.102,2.702-6.538,2.702c-2.426,0-4.805-0.982-6.526-2.702
	c-1.722-1.722-2.714-4.102-2.714-6.538C196.433,154.089,197.425,151.698,199.146,149.977z M180.088,111.859
	c1.721-1.722,4.101-2.703,6.526-2.703c2.436,0,4.816,0.981,6.538,2.703c1.72,1.721,2.702,4.101,2.702,6.538
	c0,2.436-0.982,4.816-2.702,6.537c-1.722,1.721-4.102,2.703-6.538,2.703c-2.426,0-4.806-0.982-6.526-2.703
	c-1.722-1.721-2.714-4.112-2.714-6.537C177.374,115.96,178.366,113.58,180.088,111.859z M141.97,130.918
	c1.71-1.722,4.101-2.703,6.527-2.703c2.436,0,4.816,0.982,6.537,2.703c1.721,1.722,2.703,4.111,2.703,6.538
	c0,2.436-0.982,4.816-2.703,6.537c-1.721,1.721-4.102,2.703-6.537,2.703c-2.427,0-4.817-0.982-6.527-2.703
	c-1.721-1.721-2.714-4.101-2.714-6.537C139.256,135.019,140.249,132.64,141.97,130.918z M103.853,111.859
	c1.721-1.722,4.1-2.703,6.526-2.703c2.437,0,4.816,0.981,6.538,2.703c1.72,1.721,2.703,4.101,2.703,6.538
	c0,2.436-0.983,4.816-2.703,6.537c-1.722,1.721-4.102,2.703-6.538,2.703c-2.427,0-4.806-0.982-6.526-2.703
	c-1.722-1.721-2.714-4.102-2.714-6.537C101.139,115.96,102.131,113.58,103.853,111.859z M103.841,149.977
	c1.732-1.722,4.111-2.702,6.538-2.702c2.437,0,4.816,0.98,6.538,2.702c1.72,1.732,2.703,4.112,2.703,6.538
	c0,2.426-0.983,4.806-2.703,6.538c-1.722,1.72-4.102,2.702-6.538,2.702c-2.427,0-4.806-0.982-6.538-2.702
	c-1.71-1.722-2.702-4.102-2.702-6.538C101.139,154.089,102.131,151.698,103.841,149.977z M46.676,130.918
	c1.722-1.722,4.101-2.703,6.526-2.703c2.437,0,4.817,0.982,6.538,2.703c1.721,1.732,2.703,4.111,2.703,6.538
	c0,2.425-0.983,4.816-2.703,6.537c-1.721,1.721-4.102,2.703-6.538,2.703c-2.426,0-4.816-0.982-6.526-2.703
	c-1.722-1.721-2.714-4.101-2.714-6.537C43.962,135.019,44.954,132.64,46.676,130.918z"/>
<g>
</g>
<g>
</g>
<g>
</g>
<g>
</g>
<g>
</g>
<g>
</g>
<g>
</g>
<g>
</g>
<g>
</g>
<g>
</g>
<g>
</g>
<g>
</g>
<g>
</g>
<g>
</g>
<g>
</g>
</svg>
