<?xml version="1.0" encoding="iso-8859-1"?>
<!-- Generator: Adobe Illustrator 18.0.0, SVG Export Plug-In . SVG Version: 6.00 Build 0)  -->
<!DOCTYPE svg PUBLIC "-//W3C//DTD SVG 1.1//EN" "http://www.w3.org/Graphics/SVG/1.1/DTD/svg11.dtd">
<svg version="1.1" id="Capa_1" xmlns="http://www.w3.org/2000/svg" xmlns:xlink="http://www.w3.org/1999/xlink" x="0px" y="0px"
	 viewBox="0 0 297 297" style="enable-background:new 0 0 297 297;" xml:space="preserve">
<g>
	<path d="M148.5,54.983c14.938,0,27.091-12.152,27.091-27.091S163.438,0.802,148.5,0.802c-14.939,0-27.091,12.152-27.091,27.091
		S133.561,54.983,148.5,54.983z"/>
	<path d="M79.793,176.859c8.325,9.883,20.863,16.184,34.863,16.184c13.716,0,26.002-6.27,34.178-16.109
		c8.274,9.84,20.71,16.109,34.592,16.109c13.716,0,26.002-6.27,34.178-16.109c8.274,9.84,20.71,16.109,34.592,16.109
		c24.705,0,44.805-20.1,44.805-44.805c0-32.009-15.927-65.454-43.696-91.761c-18.625-17.646-40.551-30.197-63.975-36.98
		c0.557,2.713,0.85,5.521,0.85,8.395c0,22.981-18.697,41.679-41.679,41.679s-41.679-18.697-41.679-41.679
		c0-2.878,0.294-5.69,0.853-8.406C84.248,26.27,62.323,38.832,43.696,56.479C15.927,82.785,0,116.23,0,148.239
		c0,24.705,20.342,44.805,45.346,44.805C59.179,193.044,71.567,186.742,79.793,176.859z"/>
	<path d="M252.195,207.631c-12.527,0-24.548-3.895-34.54-10.977c-9.901,7.082-21.813,10.977-34.229,10.977
		c-12.527,0-24.548-3.895-34.54-10.977c-9.901,7.082-21.813,10.977-34.229,10.977c-12.636,0-24.751-3.923-34.812-11.057
		c-9.968,7.135-21.973,11.057-34.499,11.057c-4.065,0-8.035-0.406-11.875-1.175l6.327,51.632
		c2.576,21.015,21.896,38.11,43.066,38.11h131.271c21.17,0,40.49-17.096,43.066-38.11l6.317-51.553
		C259.852,207.247,256.068,207.631,252.195,207.631z M97.908,258.62c-0.334,0.046-0.667,0.068-0.994,0.068
		c-3.591,0-6.719-2.652-7.218-6.31l-4.688-34.385c-0.545-3.991,2.249-7.667,6.241-8.212c3.992-0.55,7.667,2.251,8.212,6.242
		l4.688,34.385C104.693,254.399,101.899,258.076,97.908,258.62z M155.794,251.394c0,4.028-3.266,7.294-7.294,7.294
		c-4.028,0-7.294-3.266-7.294-7.294v-34.385c0-4.028,3.266-7.294,7.294-7.294c4.028,0,7.294,3.266,7.294,7.294V251.394z
		 M211.992,217.994l-4.688,34.385c-0.499,3.657-3.627,6.31-7.218,6.31c-0.328,0-0.66-0.023-0.994-0.068
		c-3.991-0.544-6.785-4.221-6.241-8.211l4.688-34.385c0.545-3.993,4.23-6.792,8.212-6.242
		C209.743,210.327,212.537,214.003,211.992,217.994z"/>
</g>
<g>
</g>
<g>
</g>
<g>
</g>
<g>
</g>
<g>
</g>
<g>
</g>
<g>
</g>
<g>
</g>
<g>
</g>
<g>
</g>
<g>
</g>
<g>
</g>
<g>
</g>
<g>
</g>
<g>
</g>
</svg>
