<?xml version="1.0" encoding="iso-8859-1"?>
<!-- Generator: Adobe Illustrator 18.0.0, SVG Export Plug-In . SVG Version: 6.00 Build 0)  -->
<!DOCTYPE svg PUBLIC "-//W3C//DTD SVG 1.1//EN" "http://www.w3.org/Graphics/SVG/1.1/DTD/svg11.dtd">
<svg version="1.1" id="Capa_1" xmlns="http://www.w3.org/2000/svg" xmlns:xlink="http://www.w3.org/1999/xlink" x="0px" y="0px"
	 viewBox="0 0 297 297" style="enable-background:new 0 0 297 297;" xml:space="preserve">
<g>
	<path d="M149.948,128.63c-0.544-0.544-1.297-0.856-2.066-0.856c-0.77,0-1.523,0.312-2.066,0.856l-27.628,27.629
		c-1.141,1.14-1.141,2.995,0,4.134l18.418,18.419c0.744,0.744,1.615,0.855,2.066,0.855c0.452,0,1.322-0.111,2.068-0.856
		l27.627-27.628c1.14-1.139,1.14-2.994,0-4.133L149.948,128.63z"/>
	<path d="M107.392,147.891l17.248-17.375L108.724,114.6c-1.827-1.827-4.305-2.854-6.889-2.854c-2.584,0-5.062,1.026-6.89,2.854
		l-19.83,19.83C81.981,138.817,92.757,144.35,107.392,147.891z"/>
	<path d="M166.481,172.358l-16.098,16.098c-3.13,3.129-7.289,4.85-11.712,4.85c-4.423,0-8.581-1.722-11.709-4.85l-18.421-18.419
		c-3.292-3.293-4.895-7.637-4.831-11.961c-16.85-4.197-28.956-10.821-36.376-15.865l-32.486,32.485
		c22.747-0.276,56.981,4.159,81.688,29.005c8.276,8.322,17.908,12.549,28.626,12.559c0.012,0,0.027,0,0.038,0
		c12.873,0,26.163-4.912,35.002-12.013c0.605-0.486,2.195-2.195,2.195-2.195c3.805-3.805,3.805-9.974,0-13.778L166.481,172.358z"/>
	<path d="M103.739,266.131c-5.856,0.001-11.862-0.864-17.906-2.89c-16.055-5.381-32.19-5.939-45.131-4.921l35.826,35.826
		c1.827,1.826,4.305,2.853,6.889,2.853s5.062-1.026,6.889-2.853l30.297-30.298C115.207,265.264,109.553,266.13,103.739,266.131z"/>
	<path d="M294.147,2.854c-3.806-3.804-9.973-3.804-13.778,0L161.915,121.307l13.777,13.779L294.147,16.632
		C297.951,12.828,297.951,6.659,294.147,2.854z"/>
	<path d="M89.238,253.08c19.306,6.47,40.104-0.487,52.672-10.538c4.784-3.826,17.325-17.327,17.325-17.327
		c-4.538,1.107-9.243,1.762-14.035,1.762c-0.002,0,0.001,0-0.001,0c-13.691,0-25.891-5.288-36.263-15.719
		c-26.413-26.564-66.568-26.823-85.443-25.205l-20.64,20.641c-3.805,3.805-3.805,9.974,0,13.778l28.088,28.087
		C46.024,246.455,67.518,245.801,89.238,253.08z"/>
</g>
<g>
</g>
<g>
</g>
<g>
</g>
<g>
</g>
<g>
</g>
<g>
</g>
<g>
</g>
<g>
</g>
<g>
</g>
<g>
</g>
<g>
</g>
<g>
</g>
<g>
</g>
<g>
</g>
<g>
</g>
</svg>
