<?xml version="1.0" encoding="iso-8859-1"?>
<!-- Generator: Adobe Illustrator 18.0.0, SVG Export Plug-In . SVG Version: 6.00 Build 0)  -->
<!DOCTYPE svg PUBLIC "-//W3C//DTD SVG 1.1//EN" "http://www.w3.org/Graphics/SVG/1.1/DTD/svg11.dtd">
<svg version="1.1" id="Capa_1" xmlns="http://www.w3.org/2000/svg" xmlns:xlink="http://www.w3.org/1999/xlink" x="0px" y="0px"
	 viewBox="0 0 297 297" style="enable-background:new 0 0 297 297;" xml:space="preserve">
<g>
	<path d="M259.76,194.704c-9.994,0-19.676-3.044-27.814-8.578c-8.139,5.534-17.82,8.578-27.815,8.578
		c-9.994,0-19.676-3.044-27.814-8.578c-8.14,5.534-17.821,8.578-27.815,8.578s-19.676-3.044-27.815-8.578
		c-8.139,5.534-17.82,8.578-27.814,8.578c-9.995,0-19.677-3.043-27.814-8.578c-8.139,5.534-17.821,8.578-27.816,8.578
		c-2.756,0-5.455-0.236-8.09-0.672l2.346,9.047c4.739,18.285,23.248,32.608,42.138,32.608h151.527
		c18.89,0,37.398-14.323,42.138-32.608l2.432-9.385C266.509,194.356,263.175,194.704,259.76,194.704z"/>
	<path d="M65.056,169.948c6.825,7.666,16.767,12.503,27.814,12.503c11.048,0,20.988-4.837,27.814-12.503
		c6.827,7.666,16.767,12.503,27.815,12.503s20.988-4.837,27.815-12.503c6.826,7.666,16.767,12.503,27.814,12.503
		c11.049,0,20.989-4.837,27.815-12.503c6.826,7.666,16.767,12.503,27.814,12.503c20.534,0,37.24-16.706,37.24-37.241
		c0-18.909-14.164-34.571-32.44-36.933c-9.98-11.776-45.624-46.965-115.162-46.965c-69.739,0-106.636,35.385-116.83,46.949
		C14.231,110.568,0,126.259,0,145.21c0,20.535,16.706,37.241,37.24,37.241C48.289,182.451,58.229,177.614,65.056,169.948z
		 M182.118,91.191c2.591-2.174,6.456-1.838,8.632,0.755l9.998,11.915c2.176,2.592,1.837,6.457-0.755,8.632
		c-1.147,0.963-2.546,1.434-3.936,1.434c-1.748,0-3.484-0.744-4.696-2.188l-9.998-11.915
		C179.188,97.232,179.526,93.367,182.118,91.191z M143.27,94.066c0-3.384,2.743-6.127,6.127-6.127c3.384,0,6.127,2.743,6.127,6.127
		v15.553c0,3.384-2.743,6.127-6.127,6.127c-3.384,0-6.127-2.743-6.127-6.127V94.066z M98.047,103.861l9.998-11.915
		c2.176-2.591,6.039-2.928,8.633-0.755c2.591,2.176,2.93,6.041,0.754,8.633l-9.998,11.915c-1.212,1.442-2.948,2.188-4.696,2.188
		c-1.39,0-2.787-0.471-3.935-1.434C96.21,110.318,95.871,106.453,98.047,103.861z"/>
</g>
<g>
</g>
<g>
</g>
<g>
</g>
<g>
</g>
<g>
</g>
<g>
</g>
<g>
</g>
<g>
</g>
<g>
</g>
<g>
</g>
<g>
</g>
<g>
</g>
<g>
</g>
<g>
</g>
<g>
</g>
</svg>
