<?xml version="1.0" encoding="iso-8859-1"?>
<!-- Generator: Adobe Illustrator 18.0.0, SVG Export Plug-In . SVG Version: 6.00 Build 0)  -->
<!DOCTYPE svg PUBLIC "-//W3C//DTD SVG 1.1//EN" "http://www.w3.org/Graphics/SVG/1.1/DTD/svg11.dtd">
<svg version="1.1" id="Capa_1" xmlns="http://www.w3.org/2000/svg" xmlns:xlink="http://www.w3.org/1999/xlink" x="0px" y="0px"
	 viewBox="0 0 297 297" style="enable-background:new 0 0 297 297;" xml:space="preserve">
<g>
	<g>
		<path d="M250.622,203.441v-6.089h22.017c13.432,0,24.36-10.929,24.36-24.365v-0.931c0-13.436-10.929-24.365-24.36-24.365h-22.017
			v-6.09c0-5.175-4.195-9.372-9.37-9.372H55.748c-5.175,0-9.37,4.197-9.37,9.372v6.09H24.36C10.929,147.691,0,158.62,0,172.057
			v0.931c0,13.436,10.929,24.365,24.36,24.365h22.017v6.089c0,5.176,4.195,9.373,9.37,9.373h185.504
			C246.427,212.814,250.622,208.617,250.622,203.441z"/>
	</g>
	<g>
		<path d="M80,118.642h137l1.134-21.744c1.158-22.183-6.438-43.606-20.839-58.777c-12.988-13.685-30.318-21.221-48.795-21.221
			s-35.806,7.536-48.795,21.221c-14.4,15.171-21.996,36.595-20.839,58.778L80,118.642z"/>
	</g>
	<g>
		<path d="M88.757,226.402c3.353,10.912,8.462,20.965,15.102,29.467c12.204,15.626,28.058,24.231,44.642,24.231
			s32.438-8.605,44.642-24.231c6.64-8.502,11.75-18.555,15.102-29.467H88.757z"/>
	</g>
</g>
<g>
</g>
<g>
</g>
<g>
</g>
<g>
</g>
<g>
</g>
<g>
</g>
<g>
</g>
<g>
</g>
<g>
</g>
<g>
</g>
<g>
</g>
<g>
</g>
<g>
</g>
<g>
</g>
<g>
</g>
</svg>
