<?xml version="1.0" encoding="iso-8859-1"?>
<!-- Generator: Adobe Illustrator 18.0.0, SVG Export Plug-In . SVG Version: 6.00 Build 0)  -->
<!DOCTYPE svg PUBLIC "-//W3C//DTD SVG 1.1//EN" "http://www.w3.org/Graphics/SVG/1.1/DTD/svg11.dtd">
<svg version="1.1" id="Capa_1" xmlns="http://www.w3.org/2000/svg" xmlns:xlink="http://www.w3.org/1999/xlink" x="0px" y="0px"
	 viewBox="0 0 297 297" style="enable-background:new 0 0 297 297;" xml:space="preserve">
<g>
	<path d="M217.72,173.086c42.598,0,79.28-2.753,79.28-36.58c0-18.92-10.92-36.618-30.746-49.837
		c-16.006-10.671-36.317-17.384-58.278-19.431c1.729,0.597,3.517,1.326,5.304,2.22c9.292,4.646,20.367,14.517,20.367,35.162
		c0,3.639-2.949,6.589-6.589,6.589c-3.639,0-6.588-2.95-6.588-6.589c0-25.81-24.006-26.832-26.864-26.861
		c-2.875,0.03-26.859,1.062-26.859,26.861c0,3.639-2.95,6.589-6.589,6.589c-3.639,0-6.589-2.95-6.589-6.589
		c0-20.646,11.076-30.517,20.367-35.162c1.787-0.894,3.575-1.623,5.304-2.22c-21.961,2.047-42.273,8.76-58.278,19.431
		c-9.787,6.525-17.396,14.145-22.599,22.462c1.672-0.05,3.348-0.083,5.03-0.083c30.169,0,58.764,7.986,80.518,22.489
		C200.894,142.859,212.449,157.194,217.72,173.086z"/>
	<path d="M128.927,229.762c42.598,0,77.858-2.753,77.858-36.581c0-18.92-10.92-36.618-30.746-49.836
		c-16.006-10.671-36.317-17.385-58.278-19.431c1.729,0.596,3.516,1.325,5.304,2.22c9.291,4.646,20.367,14.517,20.367,35.162
		c0,3.639-2.95,6.588-6.589,6.588c-3.639,0-6.589-2.949-6.589-6.588c0-25.81-24.006-26.833-26.863-26.861
		c-2.875,0.029-26.86,1.061-26.86,26.861c0,3.639-2.949,6.588-6.588,6.588c-3.64,0-6.589-2.949-6.589-6.588
		c0-20.645,11.075-30.517,20.367-35.162c1.787-0.894,3.575-1.624,5.304-2.22c-21.961,2.046-42.272,8.76-58.278,19.431
		C10.92,156.563,0,174.261,0,193.181c0,15.758,7.631,25.996,23.33,31.301c14.418,4.872,34.843,5.28,54.528,5.28H128.927z"/>
</g>
<g>
</g>
<g>
</g>
<g>
</g>
<g>
</g>
<g>
</g>
<g>
</g>
<g>
</g>
<g>
</g>
<g>
</g>
<g>
</g>
<g>
</g>
<g>
</g>
<g>
</g>
<g>
</g>
<g>
</g>
</svg>
