<?xml version="1.0" encoding="iso-8859-1"?>
<!-- Generator: Adobe Illustrator 18.0.0, SVG Export Plug-In . SVG Version: 6.00 Build 0)  -->
<!DOCTYPE svg PUBLIC "-//W3C//DTD SVG 1.1//EN" "http://www.w3.org/Graphics/SVG/1.1/DTD/svg11.dtd">
<svg version="1.1" id="Capa_1" xmlns="http://www.w3.org/2000/svg" xmlns:xlink="http://www.w3.org/1999/xlink" x="0px" y="0px"
	 viewBox="0 0 297 297" style="enable-background:new 0 0 297 297;" xml:space="preserve">
<g>
	<path d="M93.442,82.557c10.123-5.063,19.896-6.882,26.018-7.53c6.336-8.421,9.541-19.179,9.541-32.199
		c0-1.981-1.611-3.593-3.592-3.593c-0.533,0-13.191,0.072-25.996,6.476c-7.467,3.734-13.348,8.695-17.654,14.831V42.827
		c0-5.67-4.598-10.267-10.266-10.267c-5.67,0-10.268,4.597-10.268,10.267v17.721c-4.307-6.141-10.195-11.102-17.664-14.837
		c-12.805-6.404-25.461-6.476-25.994-6.476c-1.981,0-3.592,1.611-3.592,3.593c0,13.021,3.205,23.777,9.539,32.198
		c6.123,0.648,15.895,2.468,26.018,7.529c3.82,1.911,7.828,4.371,11.693,7.485v19.289c-4.307-6.142-10.195-11.104-17.664-14.838
		c-12.805-6.403-25.461-6.477-25.994-6.477c-1.981,0-3.592,1.612-3.592,3.594c0,13.021,3.205,23.778,9.541,32.198
		c6.123,0.65,15.893,2.469,26.016,7.53c3.82,1.911,7.828,4.371,11.693,7.486v19.288c-4.307-6.142-10.195-11.104-17.664-14.838
		c-12.805-6.403-25.461-6.477-25.994-6.477c-1.981,0-3.592,1.612-3.592,3.594c0,21.703,8.873,37.146,26.373,45.896
		c7.986,3.993,15.912,5.524,20.877,6.111v94.336c0,5.669,4.598,10.266,10.268,10.266c5.668,0,10.266-4.597,10.266-10.266v-94.338
		c4.967-0.587,12.887-2.119,20.867-6.109c17.502-8.751,26.375-24.192,26.375-45.896c0-1.981-1.611-3.594-3.592-3.594
		c-0.533,0-13.191,0.073-25.996,6.477c-7.467,3.733-13.348,8.695-17.654,14.83v-19.276c3.859-3.113,7.859-5.578,11.684-7.49
		c10.123-5.062,19.896-6.881,26.018-7.53c6.336-8.42,9.541-19.178,9.541-32.197c0-1.981-1.611-3.594-3.592-3.594
		c-0.533,0-13.191,0.073-25.996,6.477c-7.467,3.733-13.348,8.695-17.654,14.831V90.041C85.62,86.931,89.62,84.468,93.442,82.557z"/>
	<path d="M247.466,98.776c10.123-5.062,19.895-6.881,26.018-7.53c6.334-8.42,9.541-19.178,9.541-32.198
		c0-1.98-1.611-3.593-3.592-3.593c-0.533,0-13.191,0.073-25.996,6.476c-7.475,3.737-13.354,8.71-17.654,14.858V57.479
		c3.859-3.111,7.861-5.572,11.684-7.484c10.123-5.061,19.895-6.882,26.018-7.53c6.334-8.42,9.541-19.179,9.541-32.198
		c0-1.981-1.611-3.594-3.592-3.594c-0.533,0-13.191,0.073-25.996,6.476c-7.467,3.733-13.348,8.695-17.654,14.831V10.267
		c0-5.67-4.598-10.267-10.268-10.267c-5.668,0-10.266,4.597-10.266,10.267v17.721c-4.307-6.141-10.195-11.103-17.664-14.837
		c-12.805-6.404-25.461-6.477-25.994-6.477c-1.98,0-3.592,1.612-3.592,3.594c0,13.02,3.205,23.777,9.539,32.197
		c6.123,0.648,15.895,2.469,26.016,7.53c3.822,1.911,7.828,4.371,11.695,7.486v19.288c-4.307-6.142-10.195-11.104-17.664-14.838
		c-12.805-6.403-25.461-6.477-25.994-6.477c-1.98,0-3.592,1.612-3.592,3.593c0,13.021,3.205,23.779,9.541,32.199
		c6.121,0.649,15.893,2.469,26.014,7.53c3.822,1.911,7.828,4.371,11.695,7.486v19.288c-4.307-6.142-10.195-11.103-17.664-14.838
		c-12.805-6.403-25.461-6.477-25.994-6.477c-1.98,0-3.592,1.612-3.592,3.593c0,11.881,2.674,21.873,7.955,29.926
		c5.922,0.494,16.553,2.156,27.6,7.682c3.822,1.91,7.83,4.362,11.695,7.477v19.297c-4.307-6.142-10.195-11.103-17.664-14.837
		c-12.805-6.403-25.461-6.477-25.994-6.477c-1.98,0-3.592,1.611-3.592,3.593c0,21.703,8.873,37.145,26.373,45.896
		c7.984,3.993,15.912,5.525,20.877,6.112v80.236c0,5.669,4.598,10.266,10.266,10.266c5.67,0,10.268-4.597,10.268-10.266v-80.238
		c4.967-0.588,12.887-2.12,20.867-6.11c17.5-8.751,26.375-24.192,26.375-45.896c0-1.982-1.611-3.593-3.592-3.593
		c-0.533,0-13.191,0.073-25.996,6.477c-7.467,3.733-13.348,8.693-17.654,14.829v-19.285c3.857-3.113,7.861-5.569,11.684-7.481
		c11.049-5.525,21.68-7.188,27.604-7.681c5.281-8.054,7.955-18.046,7.955-29.927c0-1.98-1.611-3.593-3.592-3.593
		c-0.533,0-13.191,0.073-25.996,6.477c-7.467,3.733-13.348,8.695-17.654,14.83v-19.285
		C239.642,103.147,243.644,100.688,247.466,98.776z"/>
</g>
<g>
</g>
<g>
</g>
<g>
</g>
<g>
</g>
<g>
</g>
<g>
</g>
<g>
</g>
<g>
</g>
<g>
</g>
<g>
</g>
<g>
</g>
<g>
</g>
<g>
</g>
<g>
</g>
<g>
</g>
</svg>
