<?xml version="1.0" encoding="iso-8859-1"?>
<!-- Generator: Adobe Illustrator 18.0.0, SVG Export Plug-In . SVG Version: 6.00 Build 0)  -->
<!DOCTYPE svg PUBLIC "-//W3C//DTD SVG 1.1//EN" "http://www.w3.org/Graphics/SVG/1.1/DTD/svg11.dtd">
<svg version="1.1" id="Capa_1" xmlns="http://www.w3.org/2000/svg" xmlns:xlink="http://www.w3.org/1999/xlink" x="0px" y="0px"
	 viewBox="0 0 297 297" style="enable-background:new 0 0 297 297;" xml:space="preserve">
<g>
	<path d="M190.999,144.29c3.449-3.334,6.409-5.005,9.29-6.63c10.279-5.8,15.172-11.758,15.172-29.93
		c0-28.742-11.389-49.461-33.85-61.579c-17.117-9.234-40.594-13.536-73.881-13.536S50.967,36.917,33.85,46.151
		C11.389,58.27,0,78.988,0,107.73c0,18.172,4.893,24.13,15.172,29.93c2.881,1.625,5.841,3.296,9.29,6.63v84.514
		c0,19.619,15.961,35.581,35.58,35.581h95.377c19.619,0,35.58-15.962,35.58-35.581V144.29z M75.115,130.463
		c-1.645,0-3.289-0.628-4.544-1.882c-2.508-2.509-2.508-6.576,0-9.086l32.616-32.615c2.509-2.508,6.576-2.508,9.086,0
		c2.509,2.509,2.509,6.576,0,9.086l-32.615,32.615C78.403,129.835,76.759,130.463,75.115,130.463z M144.89,112.273l-32.616,32.616
		c-1.255,1.253-2.899,1.881-4.543,1.881c-1.644,0-3.288-0.628-4.543-1.881c-2.509-2.51-2.509-6.577,0-9.087l32.615-32.615
		c2.51-2.508,6.577-2.508,9.087,0C147.397,105.697,147.397,109.764,144.89,112.273z"/>
	<path d="M185.552,32.615c0.889,0.443,1.768,0.894,2.63,1.358c26.898,14.512,41.116,40.017,41.116,73.757
		c0,21.468-8.271,34.147-24.462,43.282v77.791c0,13.964-5.831,26.585-15.176,35.581h47.298c19.619,0,35.58-15.962,35.58-35.581
		V144.29c3.449-3.334,6.409-5.005,9.29-6.63c10.279-5.8,15.172-11.758,15.172-29.93c0-28.742-11.389-49.461-33.85-61.579
		C246.033,36.917,218.839,32.615,185.552,32.615z"/>
</g>
<g>
</g>
<g>
</g>
<g>
</g>
<g>
</g>
<g>
</g>
<g>
</g>
<g>
</g>
<g>
</g>
<g>
</g>
<g>
</g>
<g>
</g>
<g>
</g>
<g>
</g>
<g>
</g>
<g>
</g>
</svg>
