<?xml version="1.0" encoding="iso-8859-1"?>
<!-- Generator: Adobe Illustrator 18.0.0, SVG Export Plug-In . SVG Version: 6.00 Build 0)  -->
<!DOCTYPE svg PUBLIC "-//W3C//DTD SVG 1.1//EN" "http://www.w3.org/Graphics/SVG/1.1/DTD/svg11.dtd">
<svg version="1.1" id="Capa_1" xmlns="http://www.w3.org/2000/svg" xmlns:xlink="http://www.w3.org/1999/xlink" x="0px" y="0px"
	 viewBox="0 0 297.001 297.001" style="enable-background:new 0 0 297.001 297.001;" xml:space="preserve">
<g>
	<path d="M214.691,221.778c-2.271-2.699-4.419-5.248-6.838-7.227c-1.949-1.592-4.705-3.002-7.623-4.496
		c-4.466-2.285-9.526-4.875-13.751-9.123c-3.687-3.709-6.006-8.15-8.248-12.447c-1.707-3.271-3.32-6.361-5.339-8.693
		c-2.018-2.332-4.844-4.371-7.835-6.531c-3.929-2.836-7.993-5.77-11.132-9.949c-3.598-4.793-5.435-10.176-7.055-14.926
		c-1.059-3.102-2.059-6.031-3.355-8.189c-1.607-2.68-3.822-5.17-6.168-7.807c-3.508-3.945-7.136-8.025-9.08-13.24
		c-2.699-7.238-2.16-14.195-1.403-20.055c-1.285,1.428-2.316,2.973-3.128,4.615c-8.551-0.93-17.792-1.434-27.693-1.434
		c-55.469,0-91.311,15.137-91.311,38.563c0,31.418,63.856,34.81,91.311,34.81c12.735,0,33.292-0.742,51.683-4.664
		c3.686,4.941,7.317,9.471,10.561,13.359c-15.327,4.111-35.591,6.611-62.243,6.611c-54.974,0-82.849-10.607-96.043-24.139
		c0.334,3.793,3.472,7.068,8.464,11.855c0.731,0.701,1.462,1.4,2.176,2.104c1.506,1.482,2.93,3.1,4.308,4.666
		c3.515,3.998,6.835,7.773,11.38,9.465c2.034,0.758,4.858,0.861,7.609,0.861c0.92,0,1.854-0.014,2.796-0.025
		c1.03-0.014,2.072-0.027,3.119-0.027c2.632,0,6.107,0.078,9.654,0.697c4.085,0.711,7.856,2.236,11.505,3.713
		c3.942,1.596,7.667,3.102,11.218,3.35c0.299,0.021,0.599,0.029,0.901,0.029c2.714,0,5.925-0.76,9.323-1.563
		c4.088-0.967,8.721-2.063,13.59-2.063c4.869,0,9.501,1.096,13.587,2.063c3.399,0.803,6.61,1.563,9.325,1.563
		c0.303,0,0.604-0.01,0.904-0.031c3.551-0.246,7.275-1.752,11.219-3.348c3.646-1.477,7.416-3.002,11.498-3.713
		c3.548-0.619,7.023-0.697,9.655-0.697c1.048,0,2.089,0.014,3.12,0.027c0.941,0.012,1.876,0.025,2.796,0.025
		c2.75,0,5.576-0.105,7.611-0.861c0.421-0.156,0.826-0.338,1.227-0.531c3.647,4.055,7.24,7.865,10.765,11.416
		c-1.981,1.344-4.175,2.539-6.652,3.461c-4.305,1.602-8.768,1.822-12.95,1.822c-0.988,0-1.991-0.014-3.003-0.027
		c-0.963-0.012-1.936-0.027-2.913-0.027c-2.141,0-4.649,0.057-7.027,0.473c-2.479,0.43-5.347,1.592-8.385,2.82
		c-4.65,1.883-9.923,4.016-15.901,4.43c-0.65,0.045-1.306,0.066-1.962,0.066c-4.5,0.002-8.744-1.002-12.847-1.973
		c-3.591-0.85-6.982-1.65-10.066-1.65s-6.477,0.801-10.067,1.652c-4.103,0.969-8.347,1.973-12.846,1.973
		c-0.655,0-1.31-0.021-1.96-0.066c-5.979-0.416-11.25-2.547-15.9-4.43c-3.04-1.23-5.91-2.393-8.391-2.822
		c-2.378-0.416-4.887-0.473-7.027-0.473c-0.979,0-1.95,0.016-2.913,0.027c-1.012,0.014-2.014,0.027-3.002,0.027
		c-4.183,0-8.646-0.221-12.95-1.822c-7.239-2.697-12.147-7.656-16.082-12.063c3.61,28.881,64.505,32.076,91.139,32.076
		c22.319,0,68.688-2.248,85.254-19.971c20.908,20.291,39.286,31.225,52.955,31.225c4.447,0,8.353-1.189,11.876-3.582
		c-5.904-0.094-12.865-0.561-19.639-4.27C221.609,229.993,218.092,225.817,214.691,221.778z"/>
	<path d="M293.957,163.602c-5.47-17.084-17.809-37.033-35.682-57.691c-26.781-30.951-54.203-49.43-73.353-49.43
		c-6.105,0-11.191,1.836-15.557,5.611c-23.758,20.559,15.46,71.068,33.425,91.83c28.743,33.219,54.317,51.514,72.011,51.514
		c5.385,0,9.983-1.713,14.06-5.242C297.596,192.637,299.31,180.325,293.957,163.602z"/>
	<path d="M191.215,163.936c-35.971-41.57-46.189-69.592-44.59-88.422c-2.65,2.734-3.075,7.25-3.427,14.158
		c-0.052,1.012-0.104,2.02-0.168,3.02c-0.135,2.107-0.428,4.246-0.711,6.313c-0.723,5.273-1.405,10.254,0.289,14.797
		c0.944,2.531,3.487,5.391,6.179,8.416c2.582,2.904,5.508,6.195,7.852,10.1c2.135,3.553,3.447,7.404,4.719,11.127
		c1.373,4.025,2.671,7.828,4.809,10.678c1.742,2.32,4.709,4.461,7.851,6.729c3.404,2.457,7.266,5.244,10.451,8.926
		c3.186,3.684,5.389,7.904,7.333,11.627c1.792,3.434,3.485,6.678,5.532,8.738c2.508,2.521,6.085,4.352,9.871,6.291
		c3.502,1.791,7.122,3.645,10.333,6.266c3.525,2.881,6.361,6.25,8.863,9.223c2.609,3.098,5.074,6.025,7.443,7.322
		c4.252,2.332,9.28,2.371,14.603,2.414c2.085,0.016,4.239,0.035,6.345,0.203c1,0.08,2.005,0.174,3.014,0.268
		c2.496,0.234,4.854,0.455,7.046,0.455c3.524,0,5.829-0.584,7.584-1.912C250.02,219.407,222.714,200.34,191.215,163.936z"/>
</g>
<g>
</g>
<g>
</g>
<g>
</g>
<g>
</g>
<g>
</g>
<g>
</g>
<g>
</g>
<g>
</g>
<g>
</g>
<g>
</g>
<g>
</g>
<g>
</g>
<g>
</g>
<g>
</g>
<g>
</g>
</svg>
